<svg xmlns="http://www.w3.org/2000/svg" width="1366" height="671" fill="none" viewBox="0 0 1366 671"><path fill="#fff" fill-opacity=".2" d="M484.87 965.8c-14.46-.79-29.5-4.02-44.72-9.66-20.46-7.6-41.65-19.78-58.12-33.4a365 365 0 0 1-5.74-4.84c-9.37-8.12-16.92-16.04-25.11-24.82-3.43-3.69-6.82-7.42-10.4-11.38a736 736 0 0 0-23.66-25.24 215 215 0 0 0-23.81-21.03 209 209 0 0 0-20.91-13.69c-17.22-9.93-36.57-18.39-56.54-26.9-21.15-9.01-43.85-17.6-68.23-15.19-12.28 1.22-23.84 5.1-35.02 8.87-10.27 3.46-20.88 7.03-32.2 8.64-17.89 2.53-35.62-.76-49.95-9.28-16.63-9.85-27.52-26.22-28.41-42.71-1-18.44 6.08-37.06 12.93-55.06l.37-.99c3.88-10.35 7.58-20.47 10.14-30.47 3.72-14.54 9.08-50.72-21.42-72.4a68 68 0 0 0-8.55-5.15c-7.61-3.86-16.37-6.59-24.84-9.23-7.15-2.23-14.54-4.52-21.18-7.5-19.37-8.67-32.25-23.1-37.25-41.7-4.54-16.9-2.16-36 6.67-53.8 5.7-11.51 13.6-22.75 21.24-33.63 6.6-9.4 13.43-19.12 18.8-28.97 17.08-31.32 21.2-65.84 12.55-105.53-3.1-14.17-7.89-29.21-14.64-46.02l-3.29-8.12c-10.37-25.54-21.09-51.95-20.9-77.76.14-20.57 7.14-38.34 21.41-54.31 3-3.36 6.39-6.68 10.04-9.87 24.6-21.43 60.52-35.33 95.25-48.77 26.6-10.3 54.1-20.94 77.1-35.02 23.38-14.33 43.96-31.22 63.85-47.56 22.06-18.1 44.87-36.83 71.66-52.21a289 289 0 0 1 65.58-27.78c32-9.05 69.28-13.83 117.34-15.04 29.5-.75 63.34-1.36 91.34.84q5.32.43 10.31.92c3.07.28 6.24.58 9.4.84a270 270 0 0 0 53.58-.92c13.28-1.53 26.9-4.04 38.47-6.29l1.11-.22c24.5-4.8 49.84-9.76 77.08-13.27 24.97-3.23 49.4-1.92 75.26-.55 30.28 1.61 61.58 3.28 94.31-2.85 9.56-1.8 19.24-4 28.6-6.13 24-5.44 48.8-11.06 73.76-10.63 28.18.48 55.07 8.45 82.22 24.33 13.13 7.92 26.4 17.74 41.76 30.93 17.23 14.8 34.46 30.43 51.12 45.55 79.16 71.85 161.03 146.14 287.11 172.48 5 1.04 10.21 2.06 15.25 3.04 27.36 5.33 55.65 10.85 74.04 25.12 25.7 19.91 23.31 50.38 19.28 71.57a233 233 0 0 1-2.3 10.84c-3.24 13.84-9.18 27.64-14.93 41-4.12 9.57-8.4 19.48-11.66 29.4l-.09.24c-2.48 7.1-9.57 32.38 3.54 59.22 8.31 16.93 23.24 31.35 44.38 42.85 12.45 6.79 27.63 10.81 40.89 14.06q3.31.82 6.64 1.6c15.64 3.77 31.8 7.66 44.96 14.22 5.1 2.56 10.6 5.79 12.72 10.37 3.34 7.35-2.82 15.36-8.57 20.78-5.26 4.95-11.51 9.56-19.14 14.1-15.85 9.42-33.86 16.5-55.74 24.78l-.58.22c-12.15 4.6-24.71 9.35-35.61 14.83a200 200 0 0 0-10.91 5.94c-26.12 15.25-44.17 35.86-55.16 62.99a152 152 0 0 0-7.62 23.68c-2.92 13.04-4.24 27.19-5.52 40.87-.51 5.42-1.03 11.03-1.64 16.45-1.9 16.56-5.01 33.83-20.04 47.01a64 64 0 0 1-12.27 8.38c-29.42 15.59-64.86 11.14-102.37 6.43l-7.87-.98c-19.97-2.45-43.13-4.81-65.28-1.74a132.6 132.6 0 0 0-58.43 23.04c-17.09 12.15-31.09 28.74-39.4 46.7-5.52 11.93-9.29 24.28-12.96 36.22l-.64 2.11c-2.46 8-5.4 17.4-8.69 26.65-3.8 10.7-7.45 19.3-11.46 27.07a134.5 134.5 0 0 1-34.71 42.42 129 129 0 0 1-57.23 26.63c-11.02 2.13-22.55 2.96-35.26 2.52-21.77-.75-43.3-5.1-64.12-9.33l-4.26-.86c-68.42-13.8-136.6-22.85-202.66-26.91q-2.43-.16-4.83-.28c-110.81-6.11-163.2 11.6-193.06 25.56-4.3 2-8.55 4.17-12.66 6.27-9.24 4.7-18.79 9.58-29.4 12.84-12.57 3.82-26.05 5.35-40.1 4.57M161.12 778.73c19.56 1.08 37.93 8.18 55.25 15.57 20 8.51 39.39 16.99 56.66 26.95a211 211 0 0 1 21 13.74 216 216 0 0 1 23.9 21.11c8.35 8.38 16.14 16.97 23.68 25.27 3.59 3.95 6.97 7.68 10.4 11.37 8.18 8.76 15.7 16.67 25.06 24.76 1.76 1.53 3.63 3.1 5.72 4.83 16.4 13.56 37.49 25.68 57.84 33.24 29.74 11.02 58.76 12.76 83.91 5.04 10.52-3.23 20.03-8.08 29.22-12.77 4.12-2.1 8.38-4.27 12.7-6.29 63.52-29.68 143.72-28.68 198.55-25.4 66.12 4.07 134.37 13.13 202.86 26.94l4.26.86c20.77 4.2 42.25 8.57 63.88 9.3 12.59.44 24.03-.37 34.94-2.49 38.84-7.49 72.96-33.14 91.28-68.63 4.01-7.75 7.64-16.33 11.44-27.02a665 665 0 0 0 8.69-26.62l.64-2.11c3.65-11.96 7.44-24.33 12.97-36.28 8.36-18.06 22.43-34.74 39.63-46.95a133.5 133.5 0 0 1 58.94-23.23c22.32-3.09 45.59-.72 65.65 1.74l7.89.98c37.28 4.68 72.5 9.1 101.57-6.29a63 63 0 0 0 12.11-8.26c14.88-13.05 17.96-30.22 19.84-46.68.62-5.42 1.14-11.02 1.64-16.44 1.28-13.7 2.6-27.86 5.54-40.92a152 152 0 0 1 7.63-23.76c11.05-27.26 29.2-47.97 55.46-63.3a198 198 0 0 1 10.97-5.96c10.94-5.51 23.53-10.28 35.7-14.89l.58-.22c21.83-8.26 39.79-15.32 55.58-24.7 7.57-4.5 13.78-9.07 18.98-13.98 5.63-5.31 11.67-13.13 8.44-20.23-2.03-4.41-7.4-7.55-12.37-10.04-13.05-6.51-29.15-10.39-44.71-14.13l-6.63-1.6c-13.34-3.26-28.61-7.32-41.18-14.17-21.29-11.58-36.32-26.1-44.69-43.15-13.19-27-6.05-52.41-3.55-59.56l.07-.24c3.28-9.92 7.55-19.85 11.69-29.43 5.74-13.34 11.67-27.12 14.9-40.91.83-3.6 1.61-7.24 2.28-10.83 4.01-21.07 6.4-51.34-19.06-71.06-18.19-14.14-46.34-19.62-73.57-24.93-5.03-.98-10.24-2-15.26-3.04-126.38-26.4-208.34-100.79-287.6-172.72-16.65-15.11-33.87-30.74-51.11-45.53-15.32-13.16-28.56-22.96-41.63-30.85-26.97-15.77-53.67-23.67-81.59-24.16-24.79-.43-49.51 5.17-73.4 10.6-9.38 2.12-19.08 4.33-28.67 6.14-32.9 6.16-64.29 4.48-94.66 2.87-25.78-1.37-50.15-2.67-74.98.55-27.2 3.51-52.51 8.46-76.99 13.25l-1.12.22c-11.59 2.26-25.24 4.77-38.59 6.31a271 271 0 0 1-53.87.92c-3.16-.25-6.33-.55-9.4-.84q-5-.49-10.29-.92c-27.93-2.18-61.71-1.58-91.19-.84-47.93 1.21-85.1 5.98-116.99 15a289 289 0 0 0-65.33 27.66c-26.73 15.35-49.51 34.05-71.54 52.14C181.17-9.92 160.56 7 137.14 21.35c-23.07 14.13-50.62 24.8-77.26 35.1-36.25 14.04-70.5 27.29-94.97 48.61a114 114 0 0 0-9.97 9.8c-14.18 15.88-21.14 33.54-21.28 54-.19 25.72 10.51 52.08 20.87 77.58l3.28 8.13c6.77 16.83 11.56 31.9 14.66 46.09 8.67 39.8 4.55 74.41-12.58 105.84-5.38 9.88-12.23 19.61-18.84 29.02-7.62 10.85-15.52 22.08-21.2 33.56-8.79 17.69-11.15 36.68-6.63 53.47 4.95 18.44 17.68 32.72 36.84 41.3 6.57 2.94 13.92 5.23 21.04 7.44 8.52 2.66 17.33 5.4 25.03 9.3 3.08 1.56 6 3.32 8.67 5.22a56.4 56.4 0 0 1 22.69 33.55c2.88 11.88 2.52 25.5-1.03 39.4-2.56 10.01-6.27 20.15-10.16 30.51l-.37 1c-6.83 17.95-13.9 36.52-12.9 54.87.89 16.33 11.65 32.52 28.1 42.26 14.08 8.38 31.51 11.62 49.07 9.12 11.2-1.59 21.76-5.14 31.96-8.58 11.25-3.78 22.89-7.7 35.32-8.93q6.9-.67 13.64-.28"/><path fill="#fff" fill-opacity=".2" d="M632.7 881.44c-22.25-1.22-42.12-10.73-62.1-21.3-22.36-11.92-43.97-22.96-62.59-27a67 67 0 0 0-7.58-1.2c-6.34-.63-11.56-.38-16.6-.15-4.94.23-9.61.45-15.21-.08-14.22-1.37-32.9-8.72-50-19.66-7.92-5.12-15.56-10.79-22.93-16.28l-3.86-2.87a505 505 0 0 0-19.97-14.18c-14.7-9.83-31.9-19.51-52.6-29.62-17.21-8.43-40.1-18.46-64.52-21.18-16.82-1.87-33-.87-50.13.18-5.98.37-12.15.74-18.43 1-17.8.73-32.51-1.72-43.72-7.3-18.95-9.41-24.13-24.87-25.14-36.19-.76-8.7.16-17.73 1.06-26.46.77-7.57 1.5-14.72 1.23-21.71-.3-7.98-2.08-15.72-5.6-24.38-7.52-18.48-23.32-37.56-44.48-53.73q-3.24-2.47-6.7-4.84c-3.38-2.33-6.81-4.5-10.13-6.62-7.09-4.51-13.78-8.78-19.33-13.89-21.16-19.63-22.41-52.72-3.18-84.27 5.73-9.41 12.9-18.66 19.85-27.61 5.28-6.82 10.74-13.86 15.52-20.91 17.88-26.46 26.6-53.88 25.86-81.5-.4-13.09-2.88-25.97-5.24-36.84l-1.14-5.25c-4.58-21.05-9.31-42.81-3.19-63 3.94-13.04 12.35-25.9 26.48-40.43a313 313 0 0 1 7.94-7.83c18.62-17.78 37.89-32.53 58.3-48.15 14.53-11.1 29.52-22.58 44.14-35.17 25.5-21.97 59.42-39.35 92.23-56.15 26.37-13.5 53.64-27.48 76.64-43.83a463 463 0 0 0 22.8-17.5c11.25-9.01 21.89-17.54 34.64-25 28.63-16.68 68.26-28.23 121.12-35.33 3.38-.45 7.24-1.01 11.33-1.62 27.38-4 68.74-10.03 89.18-1.32 3.65 1.56 6.46 3.47 9.18 5.32a69 69 0 0 0 5.96 3.76 50 50 0 0 0 12.08 4.52c13.16 3.23 29.8 3.14 44.53-.23 11.78-2.7 26.13-8.52 38.66-13.76 24.8-10.45 54.12-17.41 84.78-20.13 18.4-1.63 36.74-.44 56.17.83 18.13 1.2 36.9 2.42 56.29 1.24 4.6-.28 9.27-.63 13.79-.97 17.06-1.29 34.7-2.61 52.51-.21 17.92 2.41 35 8.74 52.21 19.33 7.34 5.95 14.87 13.02 23.73 22.25l11.01 11.48c53.74 56.15 109.31 114.2 196.03 144.08q4.6 1.59 9.28 3.17c23.06 7.83 46.9 15.93 65.57 28.3 22.04 14.49 35.4 34.1 39.7 58.3a95 95 0 0 1 1.22 9.57c1.15 15.82-3.58 31.99-8.16 47.63-1.56 5.37-3.19 10.92-4.56 16.4-2.11 8.41-7.71 30.76 3.98 53.4 7.37 14.3 21.09 27.1 40.78 38.07 11.22 6.26 24.08 10.77 35.2 14.36l2.8.9c14.52 4.68 29.54 9.52 40.1 16.87 3.19 2.21 7.6 5.7 9.06 10.26 1.97 6.13-1.08 12.91-9.06 20.16-4.82 4.38-10.89 8.65-19.11 13.43-15.7 9.13-32.09 16.96-51.88 26.26-12.53 5.89-23.37 11.34-29.07 18.47a27 27 0 0 0-4.3 7.54c-3.76 9.93 1.23 18.34 6.99 28.07 4.67 7.88 9.95 16.81 10.95 27.86.62 6.86-.9 14.23-4.77 23.19-2.2 5.14-4.97 10.44-7.64 15.56-6.33 12.15-12.89 24.7-13.6 37.66-.4 6.78.64 13.32 1.64 19.64 1.46 9.24 2.84 17.97-.31 26.47a30 30 0 0 1-6.15 9.93c-15.34 16.66-46.61 24.97-95.61 25.41l-8.98.07c-18.03.11-36.66.23-54.63 2.55-23.48 3.02-43.57 9.44-59.71 19.07-18.39 10.94-31.99 27.39-37.28 45.16-.82 2.73-1.55 5.55-2.24 8.28-1.8 6.94-3.65 14.13-7.17 20.7-3.56 6.59-8.61 12.16-13.47 17.3a238 238 0 0 1-16.61 16.09c-16.94 14.8-45.13 33.66-83.19 39.32a169 169 0 0 1-26.66 1.77c-16.28-.12-32.69-2.15-48.56-4.12l-3.64-.45c-46.84-5.76-101.58-11-152.25-6.28-41.5 3.86-86.24 15.01-140.81 35.1l-3.12 1.15c-9.81 3.64-19.95 7.4-31.3 8.65-4.88.57-9.64.68-14.3.42M497 831.03q1.73.09 3.58.28 4.01.4 7.75 1.2c18.77 4.1 40.46 15.17 62.89 27.13 23.97 12.69 47.8 23.83 75.64 20.78 11.18-1.23 20.81-4.8 31-8.58l3.11-1.15c54.68-20.13 99.53-31.3 141.15-35.18 50.83-4.74 105.64.52 152.58 6.29l3.64.45c15.83 1.96 32.19 3.98 48.38 4.1 9.49.08 18.12-.5 26.43-1.75 37.78-5.62 65.8-24.36 82.63-39.09a234 234 0 0 0 16.57-16.04c4.84-5.12 9.85-10.66 13.38-17.18 3.5-6.52 5.34-13.68 7.12-20.6.71-2.72 1.42-5.54 2.25-8.3 5.34-17.89 19.04-34.47 37.59-45.5 16.27-9.7 36.53-16.17 60.18-19.22 18.07-2.33 36.74-2.45 54.81-2.56l8.98-.07c48.64-.43 79.64-8.65 94.78-25.1a30 30 0 0 0 6.05-9.75c3.11-8.4 1.73-17.07.28-26.25-1-6.35-2.04-12.92-1.64-19.74.73-13.05 7.3-25.66 13.66-37.84a235 235 0 0 0 7.63-15.54c3.85-8.88 5.35-16.18 4.74-22.97-.99-10.94-6.24-19.82-10.89-27.66-5.82-9.83-10.85-18.33-7.02-28.46a27 27 0 0 1 4.38-7.68c5.81-7.25 16.73-12.75 29.37-18.7 19.77-9.28 36.14-17.1 51.8-26.2 8.17-4.76 14.2-8.99 18.97-13.33 7.81-7.09 10.8-13.7 8.9-19.66-1.42-4.4-5.71-7.78-8.81-9.95-10.44-7.26-25.38-12.08-39.82-16.73l-2.8-.9c-11.17-3.6-24.1-8.14-35.4-14.45-19.83-11.04-33.65-23.95-41.08-38.36-11.76-22.8-6.14-45.26-4.02-53.72 1.37-5.48 3-11.03 4.57-16.4 4.57-15.6 9.29-31.74 8.14-47.48a93 93 0 0 0-1.21-9.53c-4.28-24.05-17.54-43.54-39.42-57.92-18.56-12.3-42.33-20.37-65.32-28.19l-9.28-3.17c-86.95-29.96-142.59-88.1-196.4-144.3q-5.51-5.78-11.01-11.48c-8.84-9.23-16.36-16.27-23.62-22.17-17.02-10.47-33.95-16.75-51.69-19.14-17.64-2.37-35.21-1.06-52.2.23-4.52.34-9.2.7-13.8.97-19.5 1.18-38.3-.05-56.48-1.23-19.36-1.26-37.65-2.46-55.94-.84-30.52 2.7-59.7 9.63-84.4 20.03-12.56 5.26-26.98 11.1-38.84 13.82-14.94 3.42-31.83 3.5-45.2.23a52 52 0 0 1-12.36-4.62 69 69 0 0 1-6.05-3.8c-2.68-1.83-5.45-3.72-9-5.24-20.1-8.57-61.23-2.56-88.45 1.41-4.08.6-7.96 1.17-11.34 1.62-52.7 7.07-92.16 18.57-120.65 35.18-12.7 7.42-23.31 15.93-34.55 24.93a470 470 0 0 1-22.82 17.52c-23.06 16.4-50.36 30.38-76.77 43.9-32.76 16.79-66.63 34.14-92.04 56.04-14.64 12.6-29.65 24.09-44.18 35.2-20.39 15.6-39.65 30.34-58.24 48.09a284 284 0 0 0-7.92 7.81C95.22 189 86.84 201.77 82.94 214.74c-6.1 20.08-1.37 41.79 3.2 62.78l1.14 5.25c2.37 10.9 4.85 23.8 5.25 36.91.72 27.72-8 55.24-25.95 81.78-4.79 7.07-10.26 14.12-15.54 20.94-6.93 8.93-14.11 18.18-19.82 27.56l-.46-.12.46.12c-19.11 31.36-17.9 64.2 3.08 83.66 5.5 5.05 12.15 9.3 19.2 13.8 3.32 2.12 6.76 4.3 10.15 6.63q3.47 2.38 6.74 4.88c21.26 16.23 37.13 35.4 44.68 53.97 3.54 8.7 5.33 16.5 5.64 24.53.28 7.02-.5 14.52-1.24 21.78-.89 8.7-1.81 17.71-1.05 26.38 1 11.18 6.1 26.45 24.74 35.71 11.02 5.48 25.5 7.89 43.08 7.17 6.26-.25 12.43-.63 18.4-1 17.2-1.06 33.43-2.05 50.38-.17 24.62 2.74 47.64 12.82 64.96 21.29 20.71 10.13 37.95 19.84 52.7 29.69a515 515 0 0 1 20 14.2l3.86 2.87c7.36 5.47 14.98 11.14 22.9 16.24 16.94 10.85 35.42 18.13 49.44 19.48 5.5.53 10.11.31 15 .08 4-.2 8.24-.4 13.11-.12"/><path fill="#fff" fill-opacity=".2" d="m756.07 786.62-2.39-.16c-24.33-2.02-42.52-14.07-60.13-25.72l-6.36-4.18c-36.8-23.98-62.36-21.07-71.65-18.7-7.55 1.93-13.51 5.47-19.26 8.9l-2.21 1.31c-3.98 2.34-8.7 4.98-14.37 6.8-16.03 5.17-39.55 2.89-59.9-5.8-14.7-6.29-26.85-14.78-38.6-23a732 732 0 0 0-8.53-5.91 341 341 0 0 0-32.6-19.63c-41.67-22-89.94-35.94-139.6-40.27l-1.94-.17c-11.77-1.02-23.93-2.08-33.84-6.64-18.57-8.54-20.1-23.77-21.7-39.9-.85-8.5-1.73-17.29-5.29-25.13a37 37 0 0 0-2.43-4.5c-8.97-14.18-29.09-23.46-48.55-32.42-12.9-5.95-26.25-12.1-36.55-19.7-18.07-13.27-26.43-30.01-24.88-49.75 1.22-14.78 8.56-31.52 21.22-48.4 6.87-9.1 14.68-18.16 22.24-26.91 17.85-20.67 36.32-42.04 43.43-65.76 2.73-9.08 3.81-18.6 4.87-27.8 1.93-16.85 3.94-34.3 16.15-49.25 5.4-6.62 12.7-12.53 19.75-18.27 5.63-4.55 11.43-9.27 16.24-14.3 12.31-12.87 18.32-27.96 24.14-42.56 4.8-12.05 9.76-24.51 18.26-35.77 18.28-24.32 48.7-39.4 76.06-50.97 9.82-4.15 20.26-8.18 30.36-12.09 22.7-8.78 46.16-17.86 65.38-29.18 4.7-2.77 9.06-5.63 12.96-8.5 11.4-8.39 20.53-18.03 29.35-27.36 7.38-7.8 15-15.86 24-23.25 29.74-24.45 72.7-39.55 117.83-54.13a730 730 0 0 1 34.94-10.46c17.79-4.77 38.2-9.19 54.7-5.9q4.71.95 8.57 3.48c3.35 2.22 5.41 4.86 7.6 7.66a47 47 0 0 0 4.76 5.44c6.72 6.26 17.04 9.38 24.52 10.9 10.61 2.16 21.94 2.14 31.86-.06 8.82-1.95 23.3-8.2 38.74-16.71a233 233 0 0 1 17.06-8.52c22.15-9.94 46.19-16.32 69.53-18.45h.15c27.7 2.89 59.66 11.3 92.44 24.34 8.79 3.49 18.14 7.29 27.45 12l.13.1a506 506 0 0 0 10.65 12.15c5.57 6.18 11.33 12.57 16.48 19.73 4.41 6.13 8.14 12.52 11.75 18.7 4.14 7.08 8.43 14.43 13.71 21.3 10.22 13.38 25.51 26.4 46.74 39.82 10.62 6.7 22.43 13.2 33.86 19.45 28.84 15.82 58.68 32.18 72.18 53.78a54 54 0 0 1 5.47 11.4c4.99 14.8 1.67 30.25-1.53 45.2-1.95 9.07-3.96 18.45-4.09 27.6-.15 9.73 1.9 18.2 6.25 25.87 11.79 20.8 41.65 35.86 63.08 45.38 16.31 7.24 34.8 15.45 37.39 28.18 2.54 12.33-10.71 22.7-25.41 32.08-7.34 4.68-14.91 9.43-22.23 14.02-7.3 4.57-14.84 9.3-22.15 13.95-10.07 6.42-19.22 12.9-20.47 21.38-.72 4.86.97 9.26 5.16 13.44 7.09 7.1 20.17 12.33 34.03 17.86 5.73 2.3 11.65 4.65 17.14 7.17 13.49 6.2 21.53 12.25 25.29 19.07 3.1 5.62 3.23 11.35.39 17.54-2.86 6.26-8.49 12.32-14.02 18l-2.74 2.78c-9.6 9.77-19.53 19.87-20.99 30.8-1.04 7.86 2.36 15.44 5.65 22.78 2.83 6.33 5.77 12.88 5.89 19.64.28 12.26-8.76 23.93-26.13 33.74-14.93 8.44-35.11 15.04-56.79 18.58a825 825 0 0 1-34.66 4.65c-29.36 3.52-59.73 7.15-83.79 18.42-20.62 9.66-35.05 24.34-38.57 39.28-.35 1.47-.59 3-.82 4.49-.74 4.7-1.5 9.57-5.75 13.48-4.03 3.72-10.64 6-16.52 7.85-25.6 8.07-53.26 13.76-82.21 16.91a471 471 0 0 1-22.59 1.91c-10.71.64-21.8.94-32.53 1.23-33.69.92-68.51 1.86-97.02 13.43-11.9 4.84-22.97 11.52-33.68 17.97-21.9 13.25-42.64 25.76-70.33 24.24M632.68 735.7a87 87 0 0 1 20.67 3.88C667.73 744 680.07 751 687.9 756.1q3.17 2.06 6.36 4.19c17.5 11.57 35.57 23.54 59.57 25.53 28.46 2.37 49.57-10.39 71.94-23.88 10.74-6.48 21.85-13.18 33.83-18.05 28.72-11.65 63.68-12.6 97.49-13.52 10.71-.3 21.78-.6 32.48-1.23 7.47-.45 15.05-1.09 22.52-1.9 28.86-3.15 56.43-8.82 81.95-16.86 6.03-1.9 12.24-4.05 16.14-7.64 4.1-3.77 4.85-8.55 5.58-13.17.24-1.5.48-3.04.82-4.52 3.57-15.1 18.14-29.94 38.98-39.7 24.23-11.35 54.71-15 84.18-18.53 11.45-1.37 23.3-2.8 34.6-4.64 57.07-9.31 82.61-33.32 82.18-51.7-.11-6.66-3.03-13.16-5.86-19.45-3.32-7.4-6.74-15.04-5.68-23.02 1.47-11.09 11.48-21.26 21.15-31.1l2.74-2.79c5.49-5.63 11.08-11.65 13.91-17.83 2.77-6.05 2.66-11.66-.37-17.14-3.7-6.69-11.61-12.65-24.93-18.76-5.46-2.5-11.38-4.86-17.09-7.15-13.95-5.57-27.12-10.83-34.33-18.06-4.32-4.3-6.06-8.83-5.32-13.86 1.28-8.7 10.55-15.27 20.76-21.77 7.31-4.66 14.85-9.4 22.15-13.96 7.32-4.59 14.89-9.33 22.23-14.01 14.52-9.26 27.61-19.49 25.12-31.53-2.52-12.45-20.81-20.57-36.96-27.75-44.98-19.97-57.75-35.64-63.45-45.68-4.39-7.75-6.46-16.29-6.31-26.1.13-9.18 2.14-18.6 4.1-27.7 3.2-14.88 6.5-30.27 1.55-44.96a54 54 0 0 0-5.42-11.3c-13.41-21.44-43.15-37.75-71.91-53.52-11.44-6.27-23.27-12.75-33.9-19.48-21.31-13.47-36.66-26.55-46.93-39.99-5.32-6.9-9.61-14.26-13.76-21.37-3.6-6.16-7.32-12.54-11.71-18.65-5.14-7.13-10.88-13.5-16.44-19.68q-2.43-2.7-4.75-5.31c-1.99-2.26-3.91-4.5-5.85-6.78-9.26-4.68-18.56-8.46-27.29-11.93-32.66-12.97-64.48-21.36-92.02-24.24-23.17 2.12-47.04 8.46-69.04 18.33a231 231 0 0 0-16.99 8.48c-7.44 4.12-26.17 13.98-39.05 16.83-10.13 2.24-21.65 2.26-32.46.06-7.62-1.55-18.15-4.74-25.03-11.14-1.89-1.78-3.38-3.68-4.83-5.52-2.15-2.75-4.2-5.35-7.43-7.5a23 23 0 0 0-8.16-3.33c-16.2-3.23-36.42 1.16-54.06 5.89a720 720 0 0 0-34.87 10.44C623-37.31 580.13-22.25 550.53 2.1c-8.95 7.35-16.57 15.4-23.93 23.18-8.84 9.35-18 19.02-29.44 27.44-3.94 2.9-8.33 5.77-13.05 8.56-19.28 11.36-42.8 20.45-65.53 29.25-10.08 3.9-20.51 7.94-30.32 12.08-27.24 11.51-57.54 26.54-75.71 50.71-8.45 11.2-13.4 23.64-18.19 35.66-5.83 14.64-11.87 29.77-24.25 42.73-4.85 5.07-10.68 9.8-16.32 14.37-7.03 5.7-14.3 11.6-19.65 18.17-12.12 14.83-14.11 32.2-16.04 49-1.05 9.22-2.15 18.75-4.88 27.86-7.13 23.82-25.65 45.24-43.54 65.96-7.55 8.74-15.37 17.78-22.21 26.87-12.6 16.8-19.9 33.45-21.11 48.15-1.55 19.56 6.74 36.15 24.63 49.3 10.23 7.53 23.53 13.67 36.39 19.6 19.58 9.02 39.82 18.35 48.89 32.7a38 38 0 0 1 2.47 4.56c3.59 7.91 4.47 16.74 5.31 25.28 1.6 15.97 3.1 31.04 21.3 39.41 9.7 4.47 21.74 5.51 33.4 6.52l1.94.17c49.83 4.36 98.26 18.34 140.07 40.41a343 343 0 0 1 32.7 19.68 747 747 0 0 1 8.53 5.92c11.72 8.2 23.82 16.66 38.43 22.9 20.07 8.57 43.2 10.83 58.93 5.77 5.55-1.79 10.22-4.4 14.15-6.71l2.21-1.31c5.83-3.46 11.84-7.04 19.57-9.02a57 57 0 0 1 17.4-1.57"/><path fill="#fff" fill-opacity=".2" d="M735.25 719.03c-18.87-1.04-35.22-7.43-50.45-14-20-8.7-41-16.79-59.2-16.94-5.9-.05-10.95.63-15.85 1.28l-2.18.28c-3.57.47-7.49.9-11.93.96-12.9.12-29.85-3.73-46.5-10.59-7.8-3.2-15.18-6.74-22.32-10.16a410 410 0 0 0-20.3-9.27 197 197 0 0 0-30.6-9.87c-20.65-4.85-42.2-6.35-65.02-7.94-17.44-1.21-35.47-2.46-53.2-5.36-12.61-2.05-21.76-5.45-28.8-10.7-11.46-8.52-13.95-20.8-16.58-33.78-1.83-9.03-3.72-18.36-8.91-26.27a38 38 0 0 0-2.93-3.89c-11.12-13.13-32.87-20.95-53.89-28.51-10.7-3.85-21.78-7.84-31.27-12.46-22.6-11.01-34.46-24.07-36.26-39.93-1.77-15.58 7.56-32.06 15.89-44.67a758 758 0 0 1 19.43-27.34c13.25-18.06 26.96-36.73 36.1-56.12 3.06-6.45 5.66-13.09 8.18-19.5 6.12-15.56 12.45-31.65 25.53-45.81 6.02-6.52 13.48-12.55 20.69-18.37 4.08-3.3 8.3-6.7 12.21-10.17 20.72-18.34 34.47-39.42 47.77-59.82l3.18-4.86q2.18-3.35 4.26-6.61c11.76-18.34 21.92-34.17 41.74-48.76 17.98-13.23 42.8-23.8 66.8-34 5.3-2.25 10.78-4.59 16-6.88 5.07-2.22 9.5-4.24 13.53-6.17 17.1-8.17 31.9-16.91 47.57-26.16a1850 1850 0 0 1 15.36-9 1295 1295 0 0 1 37.24-20.47C632.7 25.3 653.66 14.09 671.2 1.89c2.44-1.7 5.16-3.55 8.01-5.49 4.75-3.23 9.67-6.58 14.5-10.02 2.47-1.76 4.55-3.36 6.55-4.92 8.1-6.26 13.43-10.4 29.32-12.43a30 30 0 0 1 8.23.32c5.23.8 9.36 2.47 14.16 4.4l2.36.95c3.3 1.31 6.82 2.58 10.54 3.92 4.38 1.58 8.91 3.2 13.07 4.92 7.6 3.12 15.46 6.35 23.7 7.8 9.05 1.59 23.77-.51 38.38-5.47a306 306 0 0 0 16.74-6.27c6.5-2.64 13-5.4 19.29-8.08 13.13-5.58 25.53-10.87 38.24-15.18l.32-.1 1.67 1.08c21.06 13.75 47.27 30.85 84.58 37.27 8.19 1.41 16.53 1.96 24.6 2.5 2.87.18 5.83.38 8.75.61 3.8.61 7.31 1.23 10.74 1.87 11.16 2.07 27.05 5.95 36.24 15.57 7.8 8.18 8.86 18.14 9.89 27.78.62 5.77 1.25 11.74 3.32 17.31 6.28 16.95 25.49 29.56 48.08 43.13q4.96 2.97 10.06 5.97c27.82 16.4 56.57 33.34 62.12 55.94.76 3.1 1.13 6.07 1.12 9.06-.02 9.42-3.98 18.98-7.81 28.23-3.71 8.95-7.54 18.2-7.92 27.46a33.7 33.7 0 0 0 5.55 20.22c9.37 14.65 29.68 25.62 49.34 36.23l.11.06c12.75 6.9 24.43 13.89 26.98 23.72 2.92 11.17-5.93 21.5-15.91 30.97a583 583 0 0 1-16.11 14.54c-5.44 4.8-11.07 9.76-16.17 14.61-6.3 6-13.07 13.06-13.7 20.96-.34 4.36 1.05 8.39 4.27 12.32 6.28 7.67 18.29 12.96 31 18.56 4.27 1.88 8.7 3.84 12.83 5.86 11.26 5.53 18.72 11.49 22.17 17.72a16.6 16.6 0 0 1 .5 15.88c-2.69 5.63-8.07 10.7-13.83 15.84l-4.46 3.94c-8.84 7.78-17.98 15.82-23.4 24.05-4 6.03-6.08 11.9-8.11 17.57-1.88 5.27-3.81 10.7-7.26 16.17-11.27 17.85-42.16 34.71-82.63 45.12-12.52 3.23-25.61 6.03-38.27 8.74-22.52 4.81-45.81 9.78-66.54 17.36-23.82 8.7-39.59 17.18-48.22 25.93a29 29 0 0 0-2.9 3.62c-1.59 2.22-3.23 4.51-6.32 6.4-3.43 2.1-8.03 3.47-12.44 4.68-16.44 4.54-34.83 8.67-57.89 12.98a911 911 0 0 1-28.82 4.92c-25.67 4.1-49.92 7.95-71.3 18.28-7.08 3.43-13.92 7.53-20.53 11.5-16.06 9.62-32.67 19.57-53.76 20.37a113 113 0 0 1-9-.11M628.7 687.54c17.7.98 37.63 8.68 56.63 16.95 17.47 7.53 36.4 14.82 58.85 13.97 20.74-.8 37.22-10.67 53.15-20.22 6.64-3.98 13.5-8.09 20.62-11.53 21.55-10.42 47.02-14.47 71.65-18.39a1008 1008 0 0 0 28.8-4.92c23-4.3 41.37-8.42 57.77-12.94 4.34-1.2 8.84-2.55 12.15-4.57 2.94-1.8 4.54-4.04 6.1-6.2.89-1.24 1.8-2.52 2.97-3.7 8.71-8.83 24.59-17.38 48.56-26.14 20.82-7.6 44.15-12.6 66.72-17.41 12.64-2.7 25.71-5.5 38.21-8.73 40.23-10.34 70.92-27.07 82.09-44.75 3.41-5.42 5.35-10.83 7.22-16.07 2.03-5.7 4.13-11.6 8.16-17.68 5.47-8.29 14.64-16.36 23.51-24.17l4.46-3.94c5.7-5.09 11.04-10.12 13.68-15.65a16.1 16.1 0 0 0-.49-15.47c-3.39-6.12-10.73-11.98-21.84-17.42a347 347 0 0 0-12.79-5.85c-12.24-5.4-24.91-10.98-31.31-18.78-3.32-4.04-4.74-8.18-4.38-12.67.64-8.06 7.49-15.21 13.86-21.28a553 553 0 0 1 16.2-14.62c5.39-4.76 10.97-9.67 16.08-14.52 9.87-9.38 18.6-19.55 15.75-30.5-2.5-9.6-14.03-16.51-26.64-23.32l-.11-.06c-19.74-10.66-40.16-21.68-49.61-36.47a34 34 0 0 1-5.62-20.49c.38-9.34 4.23-18.63 7.95-27.61 3.81-9.21 7.75-18.74 7.77-28.07a37 37 0 0 0-1.11-8.96c-5.49-22.36-34.12-39.25-61.8-55.56q-5.1-3-10.06-5.97c-22.71-13.64-42.03-26.32-48.38-43.45-2.09-5.62-2.72-11.62-3.34-17.42-1.02-9.55-2.06-19.44-9.73-27.48-9.01-9.43-24.68-13.25-35.68-15.3a511 511 0 0 0-10.65-1.85c-2.85-.22-5.8-.42-8.66-.6-8.11-.55-16.49-1.1-24.75-2.52-37.57-6.47-63.88-23.64-85.02-37.44l-1.17-.76c-12.56 4.29-24.84 9.51-37.84 15.05-6.28 2.68-12.78 5.44-19.3 8.09a325 325 0 0 1-16.8 6.3c-15.06 5.1-29.67 7.16-39.09 5.51-8.38-1.47-16.3-4.72-23.97-7.87a308 308 0 0 0-13.02-4.9c-3.73-1.35-7.26-2.62-10.57-3.93l-2.36-.95c-4.72-1.9-8.79-3.54-13.87-4.32a28 28 0 0 0-7.82-.31c-15.55 1.99-20.8 6.06-28.77 12.21a195 195 0 0 1-6.57 4.94c-4.84 3.45-9.75 6.8-14.5 10.03a963 963 0 0 0-8.01 5.5c-17.59 12.21-38.56 23.44-60.76 35.33a1274 1274 0 0 0-37.2 20.45 1459 1459 0 0 0-15.37 9c-15.68 9.24-30.5 17.99-47.64 26.18a431 431 0 0 1-13.56 6.2c-5.23 2.29-10.71 4.62-16.02 6.88-23.94 10.18-48.7 20.72-66.59 33.88-19.7 14.51-29.83 30.3-41.56 48.58q-2.08 3.27-4.26 6.63l-3.18 4.86c-13.32 20.42-27.1 41.54-47.88 59.94a367 367 0 0 1-12.23 10.2c-7.2 5.8-14.63 11.81-20.62 18.29-13.01 14.08-19.31 30.12-25.41 45.64a316 316 0 0 1-8.2 19.53c-9.16 19.43-22.88 38.13-36.15 56.21a743 743 0 0 0-19.42 27.31c-8.28 12.55-17.56 28.93-15.8 44.37 1.77 15.66 13.5 28.57 35.85 39.46 9.44 4.6 20.48 8.57 31.15 12.42 21.15 7.6 43.02 15.48 54.28 28.76q1.66 1.95 2.97 3.95c5.23 8 7.13 17.37 8.97 26.44 2.61 12.89 5.08 25.06 16.34 33.44 6.9 5.15 15.9 8.48 28.3 10.5 17.66 2.88 35.66 4.13 53.07 5.34 22.87 1.6 44.48 3.1 65.22 7.98a198 198 0 0 1 30.8 9.93 415 415 0 0 1 20.35 9.3c7.13 3.4 14.5 6.93 22.27 10.13 16.48 6.8 33.23 10.61 45.96 10.49a99 99 0 0 0 11.74-.94l2.18-.29c4.94-.66 10.05-1.34 16.05-1.29q1.5-.01 3.07.08"/><path fill="#fff" fill-opacity=".2" d="M721.3 689.75c-14.53-.8-27.3-4.3-37.55-7.62-4.15-1.36-8.31-2.79-12.72-4.3-13.8-4.72-28.06-9.6-41-11.9-4.82-.84-9.17-1.37-13.38-1.9q-1.59-.18-3.16-.39c-3.12-.4-6.84-.91-10.8-1.64-11.11-2.07-24.73-6.33-40.5-12.68l-7.64-3.11c-11.18-4.57-21.75-8.9-32.94-12.11a156 156 0 0 0-29.72-5.54c-14.91-1.3-30.7-.4-45.95.47-20.84 1.2-42.4 2.43-62.8-1.77-10.94-2.25-19.34-6.32-25.68-12.43-8.47-8.16-11.1-18.92-13.88-30.32-2.34-9.54-4.76-19.42-10.94-27.52a42 42 0 0 0-3.14-3.62c-12.35-12.72-35.2-19.81-57.29-26.66-9.43-2.93-19.18-5.95-27.9-9.36-25.09-9.73-38.23-21.03-41.31-35.56-3.08-14.49 5.36-29.8 13.5-43.02 6.65-10.69 13.9-21.5 20.9-31.94 10.34-15.45 21.04-31.42 30.14-47.42 2.35-4.12 4.63-8.32 6.84-12.38 8.8-16.16 17.9-32.86 32.5-47.73 7.21-7.33 15.85-14.22 24.2-20.87q3.68-2.92 7.32-5.87c25.95-21.1 43.34-39.73 54.73-58.6 4.43-7.39 7.6-14.7 10.68-21.77 5.46-12.53 10.6-24.37 21.95-35.56 17.23-17 47.22-29.6 77.06-40.71l4.18-1.56 9.6-3.59c26.55-9.98 47.27-18.7 67.19-28.28 41.28-19.93 70.4-38.4 89.05-56.46 5.37-5.2 11.58-11.37 16.99-17.75 2.5-2.95 4.08-5.53 5.5-7.81 3.73-6.05 6.42-10.41 22-14.63a38 38 0 0 1 8.03-1.09c5.63-.27 11.13.3 18.36 1.89 9.67 2.12 17.49 4.78 23.23 7.92 2.74 1.5 5.21 3.05 7.6 4.56 4.08 2.56 7.93 4.99 12.47 6.75 8.9 3.46 23.2 3.27 38.24-.5A145 145 0 0 0 841.85.1c13.9-5.35 26.54-12 38.76-18.43 4.62-2.43 8.98-4.72 13.41-6.96l.42-.21.3.29c21.1 21.02 45.77 40.95 83.18 44.35 10.28.94 20.7.22 30.78-.48l5.19-.35c3.78-.15 8.24-.32 12.83-.35 14-.11 32.8 1.76 42.92 11.3 8.77 8.28 8.01 19.04 7.28 29.44-.43 5.98-.86 12.17.46 17.92 4.22 18.58 26.58 31.66 48.19 44.3l.52.3c25.23 14.76 56.64 33.14 57.11 56.9a33 33 0 0 1-.81 8.02c-1.62 7.2-5.72 14.42-9.69 21.39-4.92 8.63-10 17.56-10.53 26.69-.38 6.26 1.34 12.04 5.23 17.7 7.43 10.8 22.09 19.54 36.27 28q3.6 2.12 7.12 4.26c9.42 5.74 19.69 12.62 22.36 21.7 3.19 10.87-4.12 21.5-11.68 30.49-4.16 4.93-8.86 9.93-13.4 14.77-4.6 4.9-9.37 9.96-13.51 14.9-5.36 6.4-10.37 13.35-10.68 20.77-.19 4.19 1.08 8.06 3.87 11.84 5.86 7.93 17.86 13.47 29.45 18.83 3.7 1.7 7.53 3.48 11.12 5.3 10.42 5.3 17.41 11.06 20.79 17.12 2.8 5.04 2.99 10.15.54 15.15-2.61 5.36-7.99 10.1-13.74 14.88q-3.67 3.04-7.4 6.07c-7.81 6.35-15.87 12.91-22.31 19.42-4.66 4.7-8.58 9.29-12.38 13.72-4.74 5.55-9.22 10.79-14.97 16.18-16.82 15.77-46.1 30.65-82.46 41.9-15.72 4.88-32.19 9.17-48.1 13.32-16.83 4.39-34.24 8.93-50.65 14.14-10.91 3.47-20.96 7.57-30.69 11.55-7.6 3.1-14.79 6.04-21.96 8.5-2.03.7-3.52 1.87-5.09 3.1-1.49 1.18-3.02 2.4-5.18 3.34-3.13 1.37-6.8 2.33-10.61 3.27-7.43 1.84-15.08 3.62-22.46 5.35a1561 1561 0 0 0-24.6 5.87c-3.65.92-7.58 1.93-12.03 3.1-23.02 6-45.3 12.26-64.98 23.04a355 355 0 0 0-13.36 7.85c-14.02 8.52-28.52 17.33-46.65 19.52-6.5.78-12.77.9-18.74.58m-234.44-62.2q2.58.15 5.15.37c10.13.89 20.21 2.77 29.98 5.59 11.25 3.24 21.85 7.58 33.06 12.16q3.79 1.55 7.64 3.1c15.67 6.32 29.21 10.56 40.24 12.61 3.92.72 7.46 1.21 10.73 1.63l3.15.4c4.23.52 8.6 1.06 13.46 1.9 13.05 2.3 27.36 7.2 41.2 11.95 4.41 1.5 8.57 2.93 12.71 4.28 27.32 8.85 44.12 8.38 55.7 6.98 17.85-2.15 32.24-10.9 46.16-19.35 4.35-2.64 8.86-5.38 13.39-7.87 19.79-10.85 42.15-17.15 65.24-23.16 4.45-1.17 8.4-2.18 12.05-3.1 8.11-2.03 16.5-4 24.6-5.88 7.39-1.73 15.02-3.5 22.44-5.35 3.75-.93 7.38-1.87 10.41-3.21a22 22 0 0 0 4.97-3.2c1.63-1.3 3.18-2.51 5.38-3.27a408 408 0 0 0 21.9-8.48c9.75-3.98 19.82-8.1 30.77-11.57 16.45-5.22 33.87-9.76 50.72-14.15 15.9-4.15 32.36-8.44 48.04-13.3 36.2-11.2 65.35-26 82.08-41.7 5.71-5.35 10.18-10.58 14.91-16.1 3.81-4.46 7.73-9.05 12.41-13.77 6.46-6.52 14.55-13.1 22.37-19.47q3.73-3.02 7.41-6.06c5.69-4.73 11.02-9.41 13.57-14.68 2.37-4.86 2.19-9.82-.53-14.73-3.3-5.95-10.18-11.6-20.46-16.83-3.57-1.82-7.38-3.58-11.07-5.29-11.7-5.4-23.8-11-29.78-19.07-2.86-3.88-4.17-7.85-3.97-12.14.32-7.56 5.38-14.6 10.8-21.06a361 361 0 0 1 13.53-14.93c4.54-4.84 9.23-9.83 13.38-14.75 7.48-8.87 14.7-19.39 11.58-30.04-2.61-8.9-12.76-15.7-22.07-21.37q-3.5-2.12-7.1-4.26c-14.25-8.5-28.99-17.28-36.5-28.2-3.96-5.75-5.7-11.64-5.32-18 .54-9.23 5.64-18.21 10.58-26.9 3.95-6.93 8.03-14.11 9.64-21.25q.89-3.95.8-7.92c-.46-23.48-31.69-41.75-56.78-56.43l-.51-.3c-20.74-12.12-44.23-25.87-48.5-44.68-1.35-5.8-.91-12.03-.48-18.05.76-10.77 1.48-20.94-7.09-29.03-9.88-9.3-28.36-11.14-42.12-11.03-4.56.03-9 .2-12.76.35q-2.56.16-5.16.35c-10.14.7-20.63 1.43-31.02.47-37.62-3.43-62.41-23.3-83.58-44.35-4.3 2.17-8.52 4.4-12.99 6.74C868.98-11.4 856.3-4.75 842.34.63a147 147 0 0 1-16.73 5.31c-15.31 3.84-29.93 4.02-39.1.46-4.62-1.8-8.52-4.24-12.63-6.83-2.38-1.5-4.84-3.04-7.56-4.53-5.65-3.09-13.37-5.71-22.92-7.81-7.1-1.56-12.48-2.11-17.98-1.85-2.2.1-5.05.32-7.72 1.03C702.5-9.48 700-5.43 696.23.7a60 60 0 0 1-5.55 7.89c-5.42 6.4-11.65 12.58-17.03 17.8-18.72 18.12-47.92 36.64-89.28 56.6-19.95 9.6-40.7 18.34-67.29 28.34q-4.76 1.8-9.61 3.59l-4.18 1.55c-29.74 11.06-59.62 23.63-76.72 40.5-11.26 11.11-16.4 22.9-21.83 35.39-3.1 7.08-6.28 14.4-10.72 21.82-11.43 18.94-28.86 37.62-54.88 58.77q-3.64 2.95-7.33 5.88c-8.33 6.64-16.96 13.51-24.13 20.82-14.55 14.8-23.23 30.73-32.4 47.6a715 715 0 0 1-6.85 12.39c-9.1 16.02-19.8 32-30.16 47.44a1174 1174 0 0 0-20.89 31.93c-8.1 13.14-16.5 28.36-13.45 42.7 3.09 14.51 15.69 25.33 40.85 35.1 8.68 3.38 18.42 6.4 27.83 9.32 22.2 6.9 45.18 14.02 57.69 26.9a42 42 0 0 1 3.18 3.67c6.25 8.2 8.67 18.13 11.02 27.72 2.77 11.32 5.38 22.01 13.72 30.05 6.2 5.99 14.44 9.98 25.18 12.19 20.2 4.15 41.67 2.92 62.4 1.74 13.61-.78 27.6-1.58 41.06-.83"/><path fill="#fff" fill-opacity=".2" d="M731.95 636.69c-13.33-.74-27.7-3.87-43.76-9.46-15.49-5.4-30.43-12.41-43.61-18.6a327 327 0 0 0-18.83-8.2c-33.3-13.11-62.24-17.1-93.8-12.97-3.37.45-6.98 1.01-11.36 1.78-5.28.93-10.64 1.97-15.83 2.98-25.47 4.98-49.55 9.68-71.17 2.66-19.7-6.39-25.04-20.46-30.7-35.35-1.96-5.18-3.98-10.54-6.67-15.49a46 46 0 0 0-9.56-12.42c-4.95-4.5-11.76-8.41-20.83-11.98-11.83-4.64-26-8.13-39.71-11.51-29.74-7.33-60.5-14.9-68.37-34.73-4.96-12.43 1.48-26.2 7.17-38.35 14.84-31.72 30.82-57.51 48.84-78.85 19.24-22.72 42.18-42.8 62.09-59.44a804 804 0 0 1 11.17-9.18q4.33-3.48 8.73-6.92c17.47-13.76 35.52-27.99 44.78-44.8 4.7-8.53 6.53-17.03 8.3-25.25 2.2-10.21 4.27-19.85 11.48-29 8.9-11.32 24.97-21 50.57-30.47a501 501 0 0 1 16.82-5.95c13.82-4.6 28.32-8.7 42.33-12.65 12.37-3.5 25.15-7.1 37.4-11.05a291 291 0 0 0 22.62-8.25 151 151 0 0 0 31.1-17.41c15.11-10.96 26.52-25 32.12-39.52a25 25 0 0 0 1.48-5.99q.2-1.89.28-3.59c.36-6.33.61-10.9 14.12-17.8 12.22-6.24 29.1-8 40.16-4.2q2.82.98 5.03 2.4a43 43 0 0 1 6.73 5.7c2.3 2.24 4.66 4.55 7.86 6.39 9.07 5.16 28.77 7.13 50.61-.71 17.41-6.26 31.48-16.55 43.89-25.63l.43-.32.35.37c17.01 18.25 34.9 31.77 53.12 40.19a85 85 0 0 0 27.03 7.61c11.14 1.18 21.73 0 32.95-1.25 4.51-.5 9.19-1.02 13.95-1.39 5.5-.42 11.38-.52 17.48-.3 15.12.54 25.69 2.84 32.33 7.04 3.73 2.36 6.26 5.2 7.72 8.68 1.99 4.72 1.67 9.86 1.34 15.32-.24 3.99-.5 8.12.17 12.27q.31 1.96.91 4.02c4.26 14.46 21.53 26.6 38.23 38.35 3.64 2.56 7.09 4.99 10.39 7.43 18.09 13.37 27.25 26.7 27.25 39.6a29 29 0 0 1-3.02 12.53c-3.1 6.36-8.62 12.52-13.96 18.47-3.59 4-7.31 8.14-10.28 12.34-4.14 5.82-6.18 10.78-6.41 15.61q-.23 4.44 1.58 8.6c4.33 9.87 16.32 17.16 29.01 24.88 13.39 8.14 27.24 16.57 31.09 28.27 4.49 13.62-5.77 28.04-15.69 41.99-10.47 14.73-20.37 28.64-13.71 41.26 1.94 3.68 5.25 7.03 10.42 10.54 3.43 2.35 7.34 4.53 11.11 6.63 2.43 1.34 4.93 2.74 7.27 4.16 6.63 4.03 21.3 14.72 14.24 27.15-2.57 4.48-7.55 8.32-12.88 12.18a689 689 0 0 1-38.15 25.68c-41.24 25.9-84.24 47.73-127.79 64.9-30.73 12.05-62.81 21.87-98.04 30.02q-3.2.74-6.43 1.46c-13.65 3.1-27.77 6.3-40.73 11.72-12.99 5.41-24.17 13.08-34.97 20.48-14.82 10.16-30.15 20.66-50.04 25.13a101 101 0 0 1-27.75 2.19M564.58 585.5c20 1.1 39.9 5.8 61.67 14.36 5.7 2.25 11.7 4.86 18.9 8.23 13.15 6.18 28.08 13.2 43.5 18.57 27.53 9.59 50.02 11.88 70.77 7.22 19.67-4.42 34.92-14.86 49.66-24.97 10.85-7.43 22.07-15.12 35.15-20.58 13.06-5.45 27.24-8.66 40.94-11.77l6.43-1.47c35.17-8.14 67.18-17.94 97.87-29.96 43.49-17.15 86.42-38.96 127.61-64.82a683 683 0 0 0 38.09-25.64c5.26-3.82 10.18-7.6 12.69-11.98 6.85-12.07-7.51-22.51-13.99-26.44-2.33-1.41-4.83-2.8-7.23-4.15-3.8-2.1-7.73-4.29-11.2-6.67-5.26-3.57-8.64-7-10.63-10.78-6.79-12.87 3.18-26.9 13.74-41.75 9.86-13.85 20.04-28.17 15.62-41.58-3.78-11.5-17.52-19.85-30.79-27.93-12.23-7.44-24.87-15.13-29.28-25.17a19 19 0 0 1-1.63-8.8c.24-4.92 2.32-9.96 6.51-15.87 3-4.21 6.73-8.37 10.33-12.38 5.3-5.93 10.8-12.05 13.86-18.34a28 28 0 0 0 2.99-12.34c0-12.74-9.09-25.92-27-39.17a548 548 0 0 0-10.39-7.42c-16.79-11.81-34.16-24.02-38.47-38.67q-.61-2.08-.92-4.08c-.68-4.19-.43-8.34-.18-12.36.33-5.4.64-10.5-1.3-15.12-1.42-3.37-3.86-6.11-7.46-8.39-6.48-4.08-16.84-6.34-31.71-6.86a156 156 0 0 0-17.32.3c-4.74.36-9.4.88-13.9 1.39-11.3 1.26-21.97 2.45-33.27 1.26a86 86 0 0 1-27.44-7.72c-18.22-8.41-36.07-21.87-53.06-40.02-12.35 9.04-26.35 19.2-43.7 25.44-22.24 8-42.4 5.93-51.72.63-3.3-1.89-5.7-4.24-8.04-6.51-1.99-1.94-4.04-3.95-6.6-5.6q-2.12-1.35-4.8-2.29c-10.73-3.7-27.17-1.96-39.1 4.13-13.16 6.71-13.4 11.16-13.74 17.32-.07 1.15-.13 2.34-.29 3.61a25 25 0 0 1-1.5 6.1c-5.63 14.62-17.12 28.75-32.34 39.78a152 152 0 0 1-31.3 17.54c-7.01 2.9-14.66 5.7-22.72 8.28a1089 1089 0 0 1-37.45 11.06c-14 3.96-28.47 8.06-42.28 12.64a547 547 0 0 0-16.77 5.93c-25.43 9.4-41.37 19-50.18 30.2-7.12 9.06-9.18 18.65-11.37 28.8-1.78 8.25-3.62 16.79-8.34 25.38-9.31 16.91-27.43 31.19-44.95 45q-4.41 3.45-8.73 6.91a783 783 0 0 0-11.16 9.17c-19.88 16.63-42.79 36.68-62 59.35-18 21.3-33.94 47.05-48.77 78.73l-.46-.1.46.1c-5.64 12.06-12.04 25.74-7.15 38 7.75 19.5 38.26 27.02 67.77 34.29 13.75 3.38 27.95 6.88 39.86 11.56 9.18 3.6 16.09 7.58 21.12 12.15a46 46 0 0 1 9.69 12.58c2.7 4.98 4.74 10.35 6.7 15.55 5.6 14.75 10.88 28.68 30.18 34.93 21.27 6.9 45.16 2.24 70.45-2.7a829 829 0 0 1 15.86-3c4.39-.76 8.01-1.32 11.4-1.77a176 176 0 0 1 32.81-1.32"/><path fill="#fff" fill-opacity=".2" d="M873.1 502.5c-20.9-1.16-38.25-11.19-55.04-20.9l-6.32-3.63c-19.68-11.18-41.05-21.67-63.97-22.45a89 89 0 0 0-25.05 2.84c-9.18 2.3-17.93 5.77-26.39 9.12-14.37 5.7-29.22 11.57-46.7 12.02q-3.35.08-6.63-.1c-29.93-1.65-55.77-18.68-69.02-29.18l-1.67-1.31c-10.1-8.05-20.55-16.35-35.03-19.32-6.03-1.23-12.35-1.38-18.45-1.53-3.01-.07-6.12-.14-9.18-.34-4.78-.32-9.6-.99-14.32-1.99-28.98-6.18-52.22-24.47-56.54-44.47-4.48-20.75 8.88-42.3 34.87-56.2 7.4-3.96 15.8-7.36 23.9-10.65 14.89-6.03 30.27-12.27 39.63-22.04 7.73-8.06 10.53-17.68 13.24-26.98 2.43-8.3 4.93-16.9 10.93-24.41 12.15-15.2 28.76-16.5 46.34-17.9 9.63-.75 19.6-1.54 29.28-4.68 5.13-1.67 9.58-5.94 14.29-10.47 8.5-8.18 18.14-17.46 34.3-12.25q3.57 1.15 7.15 2.93c2.67 1.34 4.97 2.97 7.2 4.54 3.03 2.16 6.18 4.38 10.22 5.8 12.66 4.4 28.72-1.75 35.77-10.25 3.52-4.22 5.67-8.86 7.75-13.36 1.98-4.28 4.03-8.7 7.27-12.74 11.87-14.9 37.51-22.1 64.96-28.77l.18.3-.18-.3c30.45-7.38 51.37-6.15 62.2 3.68 7.62 6.93 7.26 15.94 6.91 24.64-.4 10.1-.78 19.65 10.77 25.53 12.94 6.57 30.24 1.6 37.08-.83 2.36-.85 4.74-1.78 7.04-2.68 8.71-3.4 17.73-6.92 28.31-7.01a45 45 0 0 1 25.79 7.86c10.26 6.95 16.5 17.48 15.92 26.83-1.02 16.2-15.92 29.68-30.37 40.75q-2.72 2.09-5.51 4.18c-13.15 9.94-26.76 20.22-33.15 33.36-4.2 8.7-4.11 17.25.25 24.06 5.97 9.32 19.15 15.45 31.91 21.37 15.51 7.2 30.16 14 32.25 26 1.82 10.45-8.34 21.29-27.17 28.97-4.83 1.97-10 3.76-15 5.48-10.57 3.65-21.5 7.42-29.81 13.16-12.62 8.72-17.96 21.83-13.6 33.38 1 2.72 2.7 5.41 4.33 8.02 3.01 4.8 6.13 9.75 5 15-2.76 12.96-28.83 21.74-52.3 25.65l-.68.11c-4.34.73-8.44 1.41-12.75 1.19q-.12-.04-.21-.03m-123.64-47.55c22.58 1.25 43.57 11.55 62.92 22.54l6.34 3.63c16.7 9.67 33.96 19.67 54.65 20.75 4.15.22 8.18-.45 12.44-1.17l.68-.11c23.16-3.85 48.88-12.47 51.58-25.11 1.08-5.08-1.85-9.74-4.95-14.67-1.66-2.63-3.37-5.34-4.39-8.11-4.42-11.76 1.01-25.09 13.85-33.97 8.42-5.82 19.42-9.6 30.06-13.28 4.98-1.72 10.14-3.5 14.95-5.46 18.5-7.56 28.48-18.15 26.71-28.36-2.03-11.7-16.51-18.42-31.84-25.54-12.86-5.98-26.17-12.15-32.25-21.66-4.44-6.94-4.55-15.64-.28-24.5 6.46-13.26 20.13-23.59 33.35-33.58l5.51-4.18c25.54-19.57 29.57-31.38 30.13-40.36.57-9.17-5.57-19.52-15.65-26.35a44 44 0 0 0-25.08-7.66c-10.32.07-19.22 3.55-27.82 6.92-2.3.9-4.7 1.84-7.07 2.69-7 2.5-24.76 7.58-38.15.77-11.94-6.08-11.56-15.78-11.15-26.05.35-8.6.7-17.5-6.72-24.25-10.54-9.57-31.08-10.73-61.07-3.46-27.27 6.61-52.72 13.77-64.45 28.46-3.18 3.99-5.22 8.4-7.18 12.64-2.1 4.52-4.26 9.2-7.84 13.48-7.26 8.77-23.9 15.08-37.08 10.5-4.18-1.45-7.4-3.72-10.48-5.91a54 54 0 0 0-7.07-4.47 51 51 0 0 0-6.98-2.87c-15.4-4.96-24.39 3.68-33.07 12.03-4.78 4.6-9.3 8.96-14.66 10.7-9.82 3.19-19.87 3.97-29.6 4.74-17.31 1.36-33.67 2.65-45.58 17.54-5.94 7.42-8.43 15.98-10.83 24.24-2.73 9.36-5.55 19.03-13.37 27.2-9.49 9.9-24.96 16.18-39.94 22.25-8.1 3.27-16.44 6.67-23.8 10.6-25.73 13.76-38.96 35.08-34.52 55.61 4.27 19.77 27.25 37.84 55.87 43.95 4.65.99 9.4 1.64 14.12 1.96 3.02.2 6.13.27 9.13.34 6.16.14 12.55.3 18.7 1.55 14.76 3.02 25.3 11.41 35.5 19.53l1.67 1.31c14.1 11.18 42.56 29.81 74.85 29.05 17.24-.45 31.98-6.28 46.24-11.93 8.5-3.37 17.28-6.85 26.55-9.18a91 91 0 0 1 25.45-2.87z"/><path fill="#fff" fill-opacity=".2" d="M756.31 426.2q-6-.32-13.67-2c-10.13-2.2-20.8-6.34-30.02-10.06a161 161 0 0 1-9.25-3.97 149 149 0 0 1-23.66-14c-3.51-2.5-7-5.29-10.68-8.24-4.97-3.99-10.1-8.1-15.8-11.88-7.35-4.89-16.42-8.93-26.94-12.02-3.56-1.04-7.26-1.94-10.83-2.82-2.14-.52-4.36-1.07-6.53-1.64-3.22-.84-6.15-1.7-8.95-2.6-17.12-5.56-35.5-16.59-35.8-30.89-.15-8.21 5.27-16.03 15.3-22 4.97-2.96 10.98-5.45 16.77-7.86 3.15-1.31 6.4-2.66 9.43-4.07 3.24-1.49 6.25-3.03 9.16-4.52 5-2.54 9.71-4.96 15.14-6.97 9.37-3.48 19.61-5.03 29.52-6.52 4.97-.75 10.1-1.52 15.14-2.53 3.87-.78 7.76-1.89 11.52-2.96 6.72-1.92 13.66-3.9 21.35-4.3l.46-.03q1.95-.11 3.98-.17l5.1-.09q3.5-.03 7.29-.16c8.12-.32 16.83-2.16 22.69-3.5l2.81-.67c6.1-1.41 11.87-2.76 18.07-3.75 11.6-1.89 25.8-2.08 42.2-.55 6.85.63 16.23 1.5 23.36 5.15 4 2.05 6.75 4.48 9.65 7.05 2.76 2.44 5.63 4.98 9.7 7.16 3.9 2.09 8.26 3.3 12.1 4.38l1.76.48c3.2.88 6.53 1.8 9.94 3.26 6.73 2.9 13.16 8.33 16.78 14.19 3.47 5.65 4.62 11.07 5.29 15.62.41 2.84.61 5.66.82 8.65.16 2.35.33 4.77.62 7.3a42 42 0 0 0 1.94 9.16c.9 2.58 2.1 4.97 3.25 7.3 2.53 5.05 4.91 9.84 3.75 15.51-1 4.84-5.1 9.5-11.87 13.5-4.92 2.88-10.87 5.24-16.6 7.53q-1.49.58-2.93 1.18c-5.2 2.1-10.18 4.3-14.58 6.25l-4.37 1.92-2.47 1.11a49 49 0 0 1-8.96 3.38 308 308 0 0 1-19.01 3.82c-17.25 3.12-35.06 6.34-45.64 15.25q-1.84 1.58-3.54 3.17a71 71 0 0 1-5.5 4.75c-3.85 2.9-9.55 4.13-17.29 3.7m44.4-170.83c-12.4-.69-23.34-.27-32.58 1.23-6.16.99-11.9 2.32-17.98 3.74l-2.82.66c-5.9 1.37-14.7 3.22-22.96 3.55q-3.8.13-7.32.16-2.51.02-5.08.08-2 .06-3.94.17l-.45.03c-7.52.39-14.4 2.35-21.04 4.25-3.78 1.08-7.69 2.2-11.62 3a321 321 0 0 1-15.2 2.54c-10.3 1.55-20.01 3.01-29.26 6.45-5.36 2-10.05 4.38-15.02 6.92a269 269 0 0 1-9.2 4.54c-3.05 1.41-6.31 2.76-9.47 4.07-5.76 2.4-11.72 4.88-16.63 7.8-9.82 5.84-15.12 13.49-14.96 21.51.28 14.02 18.39 24.86 35.25 30.32 2.77.9 5.68 1.74 8.89 2.59 2.15.56 4.37 1.1 6.5 1.63 3.59.88 7.29 1.78 10.89 2.84 10.63 3.11 19.8 7.2 27.24 12.15 5.71 3.8 10.87 7.93 15.85 11.93 3.68 2.94 7.15 5.73 10.64 8.22 8 5.7 14.81 9.74 23.51 13.9 2.57 1.24 5.54 2.48 9.2 3.95 9.15 3.7 19.78 7.82 29.8 10 14.6 3.16 24.37 2.66 29.9-1.53a74 74 0 0 0 5.46-4.7q1.7-1.6 3.55-3.2c10.78-9.08 28.76-12.32 46.15-15.47 6.7-1.2 13.04-2.35 18.93-3.81a48 48 0 0 0 8.74-3.3l2.48-1.12q2.1-.9 4.37-1.92c4.4-1.95 9.4-4.16 14.6-6.27l2.94-1.17c5.71-2.28 11.62-4.63 16.47-7.47 6.6-3.89 10.6-8.42 11.55-13.1 1.13-5.53-1.22-10.25-3.71-15.23a65 65 0 0 1-3.29-7.35 42 42 0 0 1-1.97-9.26 171 171 0 0 1-.61-7.31c-.21-2.98-.4-5.8-.82-8.62-.66-4.5-1.8-9.86-5.21-15.44-3.55-5.75-9.83-11.07-16.41-13.9a73 73 0 0 0-9.78-3.2l-1.76-.49c-3.9-1.09-8.32-2.32-12.33-4.47-4.16-2.24-7.06-4.8-9.86-7.28-2.86-2.53-5.57-4.92-9.47-6.91-6.92-3.55-16.16-4.4-22.89-5.02q-4.77-.45-9.27-.7"/><path fill="#fff" fill-opacity=".2" d="M746.64 374.85c-7.76-.43-15.04-2.9-19.98-7.08-3.18-2.7-5.63-5.79-8-8.78-3.15-3.98-6.42-8.1-11.41-11.2-5.38-3.36-11.55-5.71-17.51-8a196 196 0 0 1-8.13-3.23c-5.98-2.6-15.88-8.18-14.94-16.43.88-7.8 11.46-13.94 31.46-18.26a640 640 0 0 1 38.84-7.37c15.43-2.34 35.43-4.45 53.28.06 25.78 6.5 52.1 29.39 46.12 48.05-2.4 7.46-12.54 12.66-31.02 15.88l-3.66.63c-12.73 2.18-28.58 4.88-36.4 11.5a14.5 14.5 0 0 1-6.37 3.16 44 44 0 0 1-12.28 1.07m26.52-82.1c-12.67-.71-25.4.79-35.99 2.4-14 2.12-27.44 4.9-38.75 7.35-19.58 4.22-29.93 10.18-30.78 17.7-.9 7.9 8.7 13.3 14.5 15.83 2.57 1.11 5.25 2.14 8.09 3.22 6 2.3 12.22 4.67 17.68 8.07 5.12 3.18 8.41 7.34 11.6 11.37 2.36 2.96 4.8 6.03 7.93 8.68 7.25 6.14 19.77 8.47 31.15 5.8a13 13 0 0 0 5.91-2.95c8.04-6.79 24.07-9.53 36.94-11.72l3.66-.63c18.08-3.15 28-8.2 30.31-15.39 4.8-15.01-14.42-39.47-45.5-47.31a89 89 0 0 0-16.75-2.43"/></svg>