<svg xmlns="http://www.w3.org/2000/svg" width="1366" height="672" fill="none" viewBox="0 0 1366 672"><path fill="#092a57" fill-opacity=".18" d="M437.88 671.88a145 145 0 0 1-34.06-5.77c-15.58-4.53-31.72-11.8-44.27-19.93-1.6-1.03-3.03-1.98-4.37-2.89-7.14-4.84-12.9-9.57-19.13-14.8-2.61-2.21-5.2-4.44-7.92-6.8a507 507 0 0 0-18.02-15.06 158 158 0 0 0-18.15-12.55 169 169 0 0 0-15.92-8.18c-13.11-5.92-27.85-10.97-43.06-16.05-16.12-5.38-33.4-10.5-51.97-9.06-9.36.72-18.16 3.05-26.68 5.3-7.82 2.05-15.9 4.18-24.53 5.15-13.62 1.5-27.13-.46-38.05-5.54-12.66-5.88-20.96-15.65-21.64-25.5-.75-11 4.63-22.11 9.85-32.85l.29-.6c2.95-6.17 5.77-12.2 7.72-18.18 2.83-8.68 6.92-30.26-16.32-43.2a56 56 0 0 0-6.5-3.08c-5.8-2.3-12.48-3.93-18.93-5.5-5.44-1.34-11.08-2.7-16.13-4.48-14.76-5.18-24.57-13.79-28.38-24.9-3.45-10.08-1.64-21.48 5.08-32.1 4.34-6.87 10.36-13.58 16.18-20.07 5.03-5.6 10.23-11.41 14.33-17.29 13-18.7 16.14-39.3 9.55-62.98-2.36-8.45-6-17.43-11.15-27.46l-2.5-4.85c-7.9-15.24-16.07-31-15.93-46.4.11-12.28 5.45-22.89 16.32-32.42a82 82 0 0 1 7.64-5.89c18.73-12.79 46.1-21.09 72.55-29.1 20.26-6.15 41.21-12.5 58.73-20.9 17.8-8.56 33.48-18.64 48.64-28.39 16.8-10.8 34.17-21.98 54.58-31.16a256 256 0 0 1 49.95-16.58c24.37-5.4 52.77-8.25 89.38-8.98 22.48-.44 48.24-.8 69.58.5l7.85.55q3.53.28 7.15.5a262 262 0 0 0 40.81-.55c10.13-.9 20.5-2.4 29.31-3.75l.85-.13c18.66-2.86 37.96-5.82 58.71-7.92 19.02-1.92 37.63-1.14 57.33-.32 23.06.96 46.9 1.95 71.84-1.7 7.28-1.08 14.65-2.4 21.78-3.66C798.54 3.1 817.44-.24 836.45 0c21.47.29 41.95 5.05 62.63 14.52 10 4.73 20.1 10.6 31.8 18.46a1818 1818 0 0 1 38.94 27.18c60.3 42.88 122.66 87.22 218.7 102.94 3.81.62 7.78 1.23 11.61 1.81 20.85 3.19 42.4 6.48 56.4 15 19.58 11.88 17.76 30.06 14.69 42.7q-.78 3.25-1.75 6.48c-2.47 8.26-6.99 16.5-11.38 24.46-3.14 5.72-6.39 11.64-8.88 17.55l-.06.15c-1.89 4.24-7.29 19.32 2.69 35.34 6.33 10.1 17.7 18.7 33.8 25.58 9.49 4.04 21.05 6.45 31.15 8.39l5.06.95c11.91 2.25 24.22 4.57 34.25 8.49 3.88 1.52 8.07 3.45 9.68 6.19 2.54 4.38-2.14 9.16-6.53 12.4-4 2.95-8.76 5.7-14.57 8.41-12.08 5.63-25.79 9.85-42.46 14.8l-.44.12c-9.25 2.75-18.82 5.58-27.12 8.86a163 163 0 0 0-8.31 3.54c-19.9 9.1-33.65 21.4-42.02 37.59a77 77 0 0 0-5.8 14.13c-2.23 7.79-3.23 16.23-4.21 24.4-.39 3.23-.79 6.57-1.25 9.81-1.45 9.88-3.81 20.2-15.26 28.06a51 51 0 0 1-9.35 5c-22.41 9.3-49.4 6.64-77.98 3.83l-5.99-.58c-15.22-1.46-32.85-2.87-49.72-1.04-16.12 1.75-31.51 6.5-44.51 13.75-13.02 7.25-23.68 17.15-30.01 27.88-4.2 7.12-7.08 14.48-9.87 21.61l-.49 1.26a336 336 0 0 1-6.62 15.9 115 115 0 0 1-8.73 16.16c-6.34 9.62-15.49 18.37-26.44 25.31-12.8 8.12-27.46 13.46-43.6 15.9a151 151 0 0 1-26.85 1.5c-16.58-.44-32.98-3.05-48.84-5.57l-3.24-.5a1435 1435 0 0 0-158.05-16.24c-84.4-3.64-124.3 6.93-147.06 15.26-3.27 1.2-6.51 2.49-9.64 3.74-7.04 2.8-14.31 5.72-22.4 7.66a111 111 0 0 1-30.54 2.73m-246.6-111.64c14.9.64 28.89 4.88 42.09 9.29 15.23 5.08 30 10.14 43.15 16.08a170 170 0 0 1 16 8.2c6 3.53 11.78 7.53 18.2 12.6 6.36 5 12.3 10.13 18.04 15.08 2.73 2.36 5.3 4.59 7.92 6.79 6.23 5.22 11.96 9.95 19.09 14.78 1.34.9 2.76 1.85 4.36 2.88 12.49 8.1 28.55 15.32 44.05 19.84 22.65 6.57 44.76 7.61 63.92 3 8.01-1.92 15.25-4.82 22.25-7.62 3.14-1.25 6.4-2.55 9.68-3.75 48.38-17.71 109.47-17.12 151.23-15.15a1437 1437 0 0 1 154.52 16.07l3.25.51c15.83 2.51 32.18 5.11 48.66 5.55 9.6.26 18.3-.22 26.6-1.48 29.6-4.47 55.58-19.78 69.54-40.97 3.05-4.62 5.82-9.74 8.71-16.12 2.5-5.5 4.75-11.12 6.62-15.89l.49-1.26c2.78-7.13 5.67-14.51 9.88-21.64 6.37-10.78 17.09-20.74 30.18-28.03 13.11-7.3 28.64-12.1 44.9-13.86 17-1.85 34.73-.43 50.01 1.04l6 .58c28.4 2.8 55.23 5.44 77.38-3.75a51 51 0 0 0 9.22-4.93c11.33-7.79 13.68-18.03 15.11-27.86.47-3.23.87-6.58 1.25-9.81.98-8.18 1.98-16.63 4.22-24.42a78 78 0 0 1 5.81-14.18c8.42-16.27 22.24-28.63 42.25-37.78 2.82-1.3 5.55-2.46 8.35-3.56 8.33-3.29 17.93-6.13 27.2-8.88l.44-.13c16.62-4.93 30.3-9.15 42.33-14.75a83 83 0 0 0 14.46-8.34c4.29-3.17 8.89-7.84 6.43-12.07-1.55-2.63-5.64-4.51-9.42-6-9.94-3.88-22.2-6.2-34.06-8.43l-5.05-.95c-10.16-1.95-21.79-4.37-31.37-8.46-16.21-6.91-27.66-15.58-34.03-25.75a38 38 0 0 1-2.71-35.55l.05-.14c2.5-5.92 5.75-11.84 8.9-17.57 4.38-7.95 8.89-16.18 11.35-24.41q.97-3.23 1.74-6.46c3.06-12.58 4.87-30.64-14.51-42.41-13.86-8.44-35.3-11.71-56.04-14.88-3.84-.58-7.81-1.19-11.63-1.82-96.27-15.75-158.69-60.14-219.06-103.07-12.69-9.02-25.8-18.35-38.93-27.18-11.68-7.85-21.76-13.7-31.72-18.4C878.04 5.4 857.7.68 836.44.39c-18.88-.25-37.72 3.1-55.92 6.33a764 764 0 0 1-21.83 3.66c-25.06 3.68-48.97 2.68-72.1 1.72-19.64-.82-38.2-1.6-57.12.32-20.72 2.1-40 5.06-58.64 7.91l-.85.14a493 493 0 0 1-29.4 3.76 263 263 0 0 1-41.03.55 558 558 0 0 1-7.16-.5q-3.81-.3-7.83-.55c-21.28-1.3-47.01-.95-69.46-.5-36.52.72-64.83 3.56-89.12 8.95a256 256 0 0 0-49.76 16.51c-20.36 9.16-37.72 20.32-54.5 31.11-15.17 9.77-30.86 19.86-48.7 28.43-17.58 8.43-38.57 14.8-58.86 20.95-27.6 8.38-53.69 16.28-72.33 29.01a80 80 0 0 0-7.6 5.85c-10.8 9.47-16.1 20.01-16.21 32.22-.14 15.36 8.01 31.09 15.9 46.3l2.5 4.86c5.15 10.04 8.8 19.03 11.17 27.5 6.6 23.75 3.46 44.41-9.59 63.17-4.1 5.9-9.31 11.7-14.35 17.32-5.8 6.48-11.82 13.18-16.15 20.03-6.69 10.55-8.49 21.89-5.05 31.91 3.77 11 13.47 19.52 28.06 24.64 5 1.76 10.6 3.13 16.03 4.45 6.49 1.58 13.2 3.22 19.07 5.55q3.53 1.4 6.6 3.11c8.89 4.95 14.7 11.7 17.28 20.02 2.2 7.1 1.92 15.23-.79 23.52-1.94 5.97-4.77 12.03-7.73 18.2l-.28.6c-5.2 10.72-10.58 21.8-9.83 32.75.68 9.74 8.87 19.4 21.4 25.22 10.73 5 24 6.94 37.38 5.45 8.53-.95 16.58-3.08 24.35-5.12 8.57-2.26 17.43-4.6 26.9-5.34q5.25-.4 10.39-.16"/><path fill="#092a57" fill-opacity=".18" d="M550.49 621.53c-16.96-.73-32.1-6.4-47.31-12.71-17.03-7.11-33.49-13.7-47.67-16.12q-2.8-.47-5.78-.7c-4.83-.38-8.8-.24-12.64-.1-3.76.14-7.32.27-11.6-.05-10.82-.81-25.05-5.2-38.07-11.73a334 334 0 0 1-17.47-9.71l-2.94-1.72a399 399 0 0 0-15.21-8.46c-11.2-5.86-24.3-11.65-40.06-17.68-13.12-5.03-30.55-11.01-49.15-12.64-12.81-1.11-25.14-.52-38.19.11-4.55.22-9.25.45-14.03.6-13.56.43-24.77-1.03-33.3-4.36-14.44-5.62-18.38-14.84-19.15-21.6-.58-5.2.12-10.58.8-15.79.59-4.52 1.15-8.79.94-12.96-.23-4.76-1.59-9.38-4.27-14.55-5.73-11.03-17.76-22.41-33.88-32.06a123 123 0 0 0-5.1-2.9 298 298 0 0 0-7.72-3.94c-5.4-2.7-10.5-5.24-14.72-8.29-16.12-11.72-17.07-31.46-2.42-50.3 4.36-5.61 9.83-11.13 15.12-16.47 4.02-4.07 8.18-8.27 11.82-12.48 13.62-15.8 20.25-32.16 19.7-48.64-.3-7.81-2.2-15.5-4-21.98l-.86-3.14c-3.5-12.56-7.1-25.55-2.43-37.6 3-7.78 9.4-15.45 20.16-24.13 1.75-1.4 3.67-2.9 6.05-4.67 14.18-10.61 28.87-19.41 44.42-28.73 11.06-6.63 22.48-13.48 33.62-21 19.42-13.1 45.26-23.48 70.24-33.5 20.1-8.07 40.87-16.4 58.39-26.17 6.2-3.43 11.87-7 17.35-10.43 8.58-5.39 16.68-10.47 26.4-14.93 21.8-9.95 51.99-16.85 92.25-21.08 2.58-.27 5.52-.6 8.63-.97 20.86-2.38 52.36-5.99 67.93-.79 2.78.93 4.92 2.07 7 3.18a56 56 0 0 0 4.53 2.24 45 45 0 0 0 9.2 2.7c10.03 1.93 22.7 1.87 33.93-.14 8.97-1.61 19.9-5.08 29.44-8.21 18.9-6.24 41.23-10.4 64.58-12.01 14.01-.98 27.99-.27 42.78.5 13.82.7 28.1 1.43 42.88.73 3.5-.16 7.07-.37 10.5-.58 13-.77 26.44-1.56 40-.13 13.66 1.45 26.66 5.22 39.77 11.54a187 187 0 0 1 18.08 13.29l8.38 6.84c40.94 33.51 83.26 68.16 149.32 86l7.07 1.88c17.56 4.68 35.72 9.51 49.95 16.9 16.78 8.64 26.96 20.35 30.24 34.79.44 1.99.75 3.86.92 5.71.88 9.44-2.72 19.09-6.21 28.42-1.19 3.2-2.44 6.52-3.48 9.79-1.61 5.02-5.87 18.36 3.03 31.87 5.62 8.53 16.07 16.18 31.07 22.72 8.54 3.74 18.34 6.43 26.81 8.57l2.13.54c11.06 2.79 22.5 5.68 30.55 10.06 2.42 1.33 5.79 3.4 6.9 6.13 1.5 3.66-.82 7.7-6.9 12.03-3.67 2.62-8.3 5.16-14.56 8.02-11.96 5.44-24.44 10.12-39.52 15.67-9.54 3.51-17.79 6.76-22.14 11.02a16 16 0 0 0-3.28 4.5c-2.86 5.93.94 10.94 5.33 16.75 3.55 4.7 7.58 10.04 8.34 16.63.48 4.1-.68 8.5-3.63 13.84-1.68 3.06-3.79 6.23-5.82 9.29-4.82 7.24-9.82 14.74-10.36 22.47-.3 4.05.48 7.95 1.25 11.73 1.11 5.5 2.16 10.72-.24 15.79a18 18 0 0 1-4.68 5.93c-11.69 9.94-35.51 14.9-72.83 15.16l-6.84.04c-13.73.07-27.92.14-41.61 1.52-17.89 1.8-33.19 5.64-45.48 11.39-14.01 6.52-24.37 16.34-28.4 26.95q-.92 2.46-1.7 4.94c-1.38 4.14-2.78 8.43-5.47 12.35-2.7 3.93-6.55 7.26-10.25 10.33a171 171 0 0 1-12.66 9.6 141 141 0 0 1-63.37 23.46c-6.38.76-13.02 1.1-20.3 1.06-12.4-.07-24.9-1.28-36.99-2.46l-2.77-.27c-35.69-3.43-77.37-6.56-115.97-3.75-31.61 2.31-65.7 8.97-107.26 20.95l-2.38.7c-7.47 2.17-15.2 4.41-23.84 5.16q-5.56.49-10.9.24m-103.37-30.08 2.73.16q3.04.24 5.9.73c14.3 2.44 30.82 9.04 47.9 16.18 18.26 7.58 36.41 14.23 57.62 12.4 8.52-.73 15.85-2.86 23.6-5.11l2.38-.7c41.65-12 75.82-18.67 107.51-20.99 38.72-2.83 80.48.31 116.23 3.75l2.77.27c12.06 1.17 24.51 2.38 36.85 2.46 7.23.04 13.8-.3 20.13-1.06a140 140 0 0 0 62.94-23.32c4.13-2.82 8.25-5.95 12.62-9.58 3.69-3.05 7.5-6.35 10.2-10.25 2.66-3.89 4.06-8.16 5.42-12.29.54-1.63 1.08-3.3 1.71-4.95 4.07-10.68 14.5-20.58 28.64-27.15 12.39-5.8 27.82-9.66 45.84-11.48 13.76-1.4 27.98-1.46 41.74-1.53l6.85-.04c37.05-.26 60.66-5.16 72.19-14.97a18 18 0 0 0 4.61-5.83c2.37-5 1.31-10.19.21-15.66-.76-3.8-1.55-7.71-1.25-11.79.56-7.78 5.56-15.3 10.41-22.58a128 128 0 0 0 5.8-9.27c2.94-5.3 4.08-9.66 3.62-13.71-.76-6.53-4.76-11.83-8.3-16.5-4.43-5.88-8.26-10.94-5.35-17a16 16 0 0 1 3.34-4.58c4.42-4.32 12.74-7.6 22.37-11.15 15.06-5.54 27.53-10.21 39.46-15.65 6.22-2.83 10.81-5.36 14.45-7.95 5.95-4.23 8.23-8.18 6.78-11.73-1.08-2.62-4.35-4.64-6.71-5.94-7.96-4.33-19.33-7.2-30.34-9.98l-2.12-.54c-8.51-2.15-18.36-4.86-26.97-8.62-15.1-6.6-25.63-14.3-31.29-22.9-8.96-13.6-4.68-27.01-3.06-32.06 1.04-3.27 2.28-6.58 3.48-9.79 3.48-9.3 7.07-18.94 6.2-28.34-.18-1.84-.48-3.7-.92-5.68-3.27-14.35-13.37-25.98-30.03-34.57-14.14-7.34-32.24-12.16-49.76-16.82q-3.57-.94-7.06-1.9c-66.23-17.87-108.62-52.57-149.6-86.12l-8.39-6.85c-6.73-5.5-12.46-9.7-18-13.22-12.96-6.25-25.85-10-39.36-11.43-13.44-1.41-26.82-.63-39.76.14-3.45.2-7.01.42-10.52.58-14.85.7-29.17-.03-43.02-.74-14.74-.75-28.68-1.47-42.6-.5-23.25 1.62-45.48 5.75-64.29 11.96-9.58 3.14-20.55 6.62-29.6 8.25-11.37 2.04-24.23 2.09-34.42.13a47 47 0 0 1-9.41-2.75 57 57 0 0 1-4.61-2.28 43 43 0 0 0-6.86-3.12c-15.31-5.11-46.64-1.53-67.37.84-3.11.36-6.06.7-8.64.97-40.14 4.22-70.2 11.08-91.9 21-9.68 4.42-17.75 9.5-26.31 14.88-5.5 3.44-11.17 7-17.38 10.45-17.57 9.79-38.36 18.13-58.48 26.2-24.95 10.02-50.75 20.37-70.11 33.44-11.15 7.53-22.59 14.38-33.65 21.01-15.53 9.31-30.2 18.1-44.36 28.7a201 201 0 0 0-6.04 4.66c-10.7 8.64-17.08 16.27-20.05 24-4.64 12-1.05 24.94 2.43 37.47l.87 3.14c1.8 6.5 3.7 14.2 4 22.03.55 16.54-6.1 32.96-19.76 48.8-3.65 4.22-7.82 8.43-11.84 12.5-5.28 5.33-10.75 10.85-15.1 16.44l-.35-.07.35.07c-14.55 18.72-13.63 38.32 2.35 49.93 4.18 3.02 9.25 5.56 14.63 8.24a300 300 0 0 1 7.73 3.96q2.64 1.42 5.13 2.9c16.2 9.7 28.28 21.14 34.03 32.22 2.7 5.2 4.06 9.85 4.3 14.64.2 4.19-.38 8.66-.94 13-.68 5.2-1.39 10.57-.8 15.74.75 6.67 4.64 15.78 18.84 21.31 8.4 3.27 19.43 4.71 32.8 4.28 4.78-.15 9.48-.38 14.03-.6 13.1-.63 25.46-1.22 38.37-.1 18.76 1.64 36.29 7.65 49.48 12.7 15.78 6.05 28.91 11.85 40.14 17.73 5.6 2.93 10.84 5.93 15.23 8.47l2.95 1.71c5.6 3.27 11.41 6.65 17.44 9.7 12.9 6.47 26.98 10.82 37.66 11.62 4.19.32 7.7.2 11.42.05 3.06-.12 6.28-.24 10-.07"/><path fill="#092a57" fill-opacity=".18" d="m644.45 564.95-1.81-.1c-18.53-1.2-32.4-8.4-45.8-15.35l-4.85-2.5c-28.02-14.3-47.5-12.57-54.58-11.15-5.75 1.15-10.29 3.26-14.67 5.3l-1.68.79A62 62 0 0 1 510.1 546c-12.2 3.09-30.12 1.72-45.62-3.47-11.2-3.75-20.46-8.81-29.4-13.72a576 576 0 0 0-6.5-3.53 281 281 0 0 0-24.84-11.71c-31.74-13.14-68.5-21.45-106.32-24.04l-1.49-.1c-8.96-.6-18.23-1.24-25.77-3.96-14.15-5.1-15.3-14.19-16.53-23.8-.65-5.08-1.32-10.33-4.03-15.01a21 21 0 0 0-1.85-2.69c-6.83-8.46-22.16-14-36.98-19.35-9.83-3.55-20-7.22-27.84-11.75-13.76-7.92-20.14-17.91-18.95-29.7.93-8.81 6.52-18.8 16.16-28.88 5.23-5.43 11.18-10.84 16.94-16.06 13.6-12.34 27.67-25.09 33.08-39.25 2.08-5.41 2.9-11.09 3.71-16.58 1.47-10.06 3-20.47 12.3-29.4 4.12-3.95 9.68-7.48 15.05-10.9 4.28-2.72 8.7-5.53 12.37-8.53 9.38-7.69 13.95-16.7 18.38-25.4 3.65-7.2 7.44-14.63 13.91-21.35 13.93-14.52 37.1-23.52 57.94-30.42a950 950 0 0 1 23.12-7.22c17.3-5.24 35.16-10.65 49.8-17.41 3.58-1.65 6.9-3.36 9.88-5.08 8.68-5 15.63-10.75 22.35-16.32 5.63-4.66 11.43-9.47 18.28-13.88 22.66-14.59 55.38-23.6 89.75-32.3 7.11-1.8 16.56-4.13 26.62-6.25 13.55-2.84 29.1-5.48 41.67-3.52q3.58.56 6.52 2.08c2.55 1.32 4.12 2.9 5.8 4.57a32 32 0 0 0 3.62 3.25c5.12 3.73 12.98 5.6 18.67 6.5a76 76 0 0 0 24.27-.03c6.72-1.17 17.75-4.9 29.5-9.98 4.24-1.83 8.62-3.54 13-5.08a207 207 0 0 1 52.96-11.01h.12c21.1 1.72 45.44 6.75 70.41 14.52 6.7 2.09 13.82 4.35 20.91 7.17l.1.06a322 322 0 0 0 8.11 7.25c4.25 3.68 8.63 7.5 12.56 11.77 3.35 3.66 6.2 7.47 8.94 11.16 3.16 4.23 6.42 8.61 10.45 12.72 7.78 7.98 19.43 15.75 35.6 23.76 8.09 4 17.08 7.87 25.8 11.6 21.96 9.45 44.69 19.21 54.97 32.1a30 30 0 0 1 4.17 6.8c3.8 8.84 1.27 18.06-1.17 26.98-1.48 5.42-3.02 11.01-3.12 16.47a24.7 24.7 0 0 0 4.77 15.44c8.98 12.42 31.72 21.4 48.05 27.08 12.42 4.33 26.5 9.22 28.47 16.83 1.94 7.35-8.15 13.54-19.35 19.14-5.59 2.8-11.36 5.63-16.93 8.37-5.56 2.73-11.3 5.54-16.87 8.32-7.67 3.84-14.64 7.7-15.59 12.76-.55 2.9.73 5.53 3.92 8.02 5.41 4.25 15.37 7.36 25.93 10.66 4.36 1.37 8.87 2.78 13.05 4.28 10.28 3.7 16.4 7.31 19.27 11.38 2.36 3.36 2.46 6.78.29 10.47-2.17 3.73-6.47 7.35-10.67 10.74l-2.09 1.66c-7.32 5.83-14.88 11.86-15.99 18.39-.8 4.69 1.8 9.2 4.3 13.59 2.16 3.78 4.4 7.68 4.49 11.72.21 7.31-6.67 14.28-19.9 20.14-11.38 5.03-26.75 8.97-43.27 11.08a783 783 0 0 1-26.39 2.78c-22.37 2.1-45.5 4.27-63.83 11-15.7 5.76-26.7 14.52-29.38 23.43-.26.88-.44 1.8-.62 2.68-.56 2.81-1.14 5.71-4.38 8.05-3.07 2.22-8.1 3.58-12.58 4.69a407 407 0 0 1-62.62 10.09c-5.7.48-11.5.87-17.2 1.14-8.17.38-16.62.56-24.79.73-25.66.55-52.19 1.11-73.9 8.02-9.06 2.88-17.5 6.87-25.65 10.72-16.68 7.9-32.48 15.38-53.58 14.47m-93.98-30.4q7.42.33 15.74 2.33a122 122 0 0 1 26.32 9.85l4.85 2.5c13.32 6.9 27.09 14.05 45.37 15.24 21.68 1.41 37.76-6.2 54.8-14.25 8.18-3.87 16.64-7.87 25.77-10.77 21.87-6.96 48.5-7.53 74.25-8.08 8.16-.17 16.6-.35 24.74-.73 5.7-.27 11.47-.65 17.16-1.14a406 406 0 0 0 62.42-10.05c4.6-1.13 9.33-2.42 12.3-4.56 3.11-2.25 3.69-5.1 4.24-7.87.19-.88.37-1.8.63-2.7 2.72-9 13.81-17.86 29.69-23.69 18.46-6.77 41.67-8.95 64.12-11.05 8.73-.82 17.75-1.67 26.36-2.77 43.47-5.56 62.92-19.89 62.6-30.85-.1-3.98-2.32-7.86-4.47-11.62-2.53-4.4-5.14-8.97-4.32-13.73 1.11-6.62 8.74-12.69 16.1-18.56l2.09-1.67c4.18-3.36 8.44-6.95 10.6-10.64 2.11-3.61 2.02-6.96-.29-10.23-2.81-3.99-8.84-7.55-18.99-11.2-4.15-1.49-8.66-2.9-13.01-4.26-10.63-3.33-20.66-6.47-26.16-10.78-3.29-2.57-4.61-5.27-4.05-8.27.98-5.2 8.04-9.12 15.82-13 5.57-2.78 11.31-5.6 16.87-8.33s11.34-5.57 16.93-8.36c11.06-5.53 21.04-11.63 19.14-18.82-1.92-7.43-15.86-12.27-28.15-16.55-34.27-11.92-44-21.27-48.34-27.27a24.8 24.8 0 0 1-4.8-15.57c.1-5.48 1.63-11.1 3.12-16.53 2.44-8.88 4.95-18.07 1.18-26.84a30 30 0 0 0-4.13-6.74c-10.21-12.8-32.86-22.53-54.77-31.94-8.72-3.75-17.73-7.61-25.82-11.63-16.23-8.04-27.93-15.84-35.75-23.86-4.05-4.13-7.32-8.52-10.48-12.76-2.75-3.68-5.58-7.48-8.93-11.13-3.9-4.26-8.28-8.06-12.51-11.74l-3.62-3.17a341 341 0 0 1-4.46-4.05 291 291 0 0 0-20.79-7.12c-24.87-7.74-49.11-12.75-70.09-14.47a205 205 0 0 0-52.58 10.94 199 199 0 0 0-12.94 5.07c-5.68 2.45-19.95 8.34-29.75 10.04a77 77 0 0 1-24.73.03c-5.8-.92-13.82-2.82-19.06-6.65a31 31 0 0 1-3.68-3.29c-1.64-1.64-3.2-3.2-5.66-4.47a20 20 0 0 0-6.22-1.99c-12.34-1.93-27.74.7-41.17 3.51a666 666 0 0 0-26.57 6.23c-34.3 8.68-66.94 17.67-89.5 32.2-6.81 4.39-12.61 9.2-18.22 13.84-6.74 5.58-13.7 11.35-22.43 16.37-3 1.73-6.34 3.45-9.93 5.1-14.7 6.8-32.6 12.22-49.92 17.47a971 971 0 0 0-23.1 7.2c-20.74 6.88-43.83 15.85-57.67 30.27-6.44 6.69-10.2 14.1-13.85 21.28-4.44 8.74-9.04 17.77-18.48 25.5-3.68 3.03-8.12 5.85-12.42 8.58-5.36 3.4-10.9 6.92-14.97 10.84-9.23 8.86-10.75 19.22-12.22 29.24-.8 5.5-1.64 11.2-3.72 16.64-5.43 14.2-19.53 27-33.16 39.36-5.75 5.22-11.7 10.61-16.92 16.04-9.6 10.02-15.16 19.96-16.08 28.73-1.18 11.68 5.14 21.57 18.77 29.42 7.78 4.5 17.92 8.16 27.7 11.7 14.92 5.38 30.34 10.95 37.25 19.52q1.04 1.3 1.88 2.72c2.73 4.72 3.4 9.99 4.05 15.08 1.21 9.53 2.36 18.53 16.22 23.53 7.4 2.66 16.56 3.29 25.44 3.89l1.48.1c37.95 2.6 74.85 10.94 106.7 24.12a283 283 0 0 1 24.9 11.74c2.18 1.16 4.37 2.37 6.5 3.53 8.92 4.9 18.14 9.94 29.27 13.67 15.29 5.11 32.9 6.46 44.89 3.44a61 61 0 0 0 10.78-4l1.68-.78c4.44-2.07 9.02-4.2 14.9-5.39a55 55 0 0 1 13.26-.93"/><path fill="#092a57" fill-opacity=".18" d="M628.6 524.6c-14.38-.61-26.83-4.43-38.43-8.35-15.24-5.19-31.23-10.01-45.1-10.1-4.48-.04-8.34.37-12.06.75l-1.67.18c-2.72.27-5.7.53-9.08.56-9.83.08-22.74-2.22-35.42-6.31a362 362 0 0 1-17-6.07 359 359 0 0 0-15.47-5.53 182 182 0 0 0-23.3-5.89c-15.73-2.9-32.15-3.79-49.53-4.74-13.29-.72-27.02-1.47-40.53-3.2-9.6-1.22-16.57-3.25-21.94-6.38-8.72-5.08-10.62-12.41-12.62-20.16-1.4-5.39-2.83-10.96-6.79-15.68q-.98-1.17-2.23-2.32c-8.47-7.84-25.03-12.5-41.05-17.02-8.15-2.3-16.58-4.67-23.82-7.43-17.21-6.58-26.24-14.37-27.62-23.83-1.34-9.3 5.76-19.13 12.1-26.66a472 472 0 0 1 14.81-16.32c10.1-10.78 20.53-21.92 27.5-33.5 2.33-3.84 4.3-7.8 6.23-11.63 4.66-9.29 9.48-18.9 19.44-27.34 4.59-3.9 10.27-7.49 15.76-10.96 3.1-1.97 6.32-4 9.3-6.07 15.79-10.95 26.26-23.53 36.4-35.7l2.41-2.9 3.25-3.95c8.96-10.94 16.7-20.4 31.79-29.1 13.7-7.9 32.6-14.2 50.88-20.29 4.04-1.34 8.21-2.74 12.2-4.1 3.85-1.33 7.22-2.54 10.3-3.69 13.02-4.88 24.3-10.09 36.23-15.6 3.78-1.76 7.71-3.57 11.7-5.38a1080 1080 0 0 1 28.36-12.22c16.9-7.08 32.85-13.78 46.22-21.05 1.86-1.02 3.93-2.12 6.1-3.28 3.62-1.93 7.37-3.93 11.05-5.98a150 150 0 0 0 4.98-2.93c6.17-3.74 10.23-6.21 22.34-7.42 2.27-.23 4.54-.02 6.26.19 3.99.47 7.13 1.47 10.79 2.63l1.8.56q3.77 1.16 8.02 2.34c3.34.94 6.8 1.91 9.96 2.93 5.79 1.87 11.78 3.8 18.05 4.66 6.9.95 18.1-.3 29.24-3.26 3.92-1.04 8.2-2.3 12.75-3.74 4.96-1.58 9.9-3.23 14.7-4.83 10-3.33 19.44-6.48 29.12-9.06l.24-.06 1.28.65c16.04 8.2 36 18.4 64.42 22.24 6.24.84 12.6 1.17 18.74 1.49 2.19.11 4.44.23 6.66.37 2.9.36 5.57.73 8.19 1.11 8.5 1.24 20.6 3.55 27.6 9.3 5.94 4.87 6.75 10.82 7.53 16.57.48 3.45.96 7 2.53 10.34 4.79 10.11 19.42 17.64 36.63 25.73q3.77 1.78 7.66 3.57c21.19 9.78 43.1 19.9 47.32 33.38.58 1.85.86 3.62.85 5.41-.02 5.62-3.03 11.33-5.95 16.85-2.82 5.34-5.74 10.86-6.03 16.39-.24 4.34 1.14 8.29 4.23 12.07 7.13 8.74 22.6 15.28 37.57 21.62l.09.03c9.72 4.11 18.61 8.3 20.55 14.15 2.22 6.68-4.51 12.83-12.12 18.5-3.9 2.9-8.15 5.83-12.27 8.67-4.14 2.86-8.43 5.82-12.32 8.72-4.79 3.58-9.95 7.8-10.43 12.5-.26 2.6.8 5.01 3.25 7.36 4.79 4.57 13.93 7.73 23.61 11.07a349 349 0 0 1 9.78 3.5c8.57 3.3 14.26 6.86 16.88 10.58 2.2 3.1 2.32 6.3.38 9.48-2.04 3.35-6.14 6.38-10.53 9.45l-3.39 2.35c-6.74 4.64-13.7 9.44-17.83 14.35-3.04 3.6-4.63 7.1-6.18 10.49-1.43 3.14-2.9 6.39-5.53 9.65-8.58 10.65-32.11 20.72-62.94 26.93-9.54 1.93-19.5 3.6-29.15 5.2-17.15 2.88-34.9 5.85-50.68 10.37-18.15 5.2-30.16 10.26-36.73 15.48-.85.67-1.51 1.4-2.21 2.16-1.21 1.32-2.46 2.7-4.81 3.81-2.61 1.26-6.12 2.08-9.48 2.8-12.52 2.71-26.53 5.17-44.1 7.75a870 870 0 0 1-21.95 2.94c-19.55 2.44-38.02 4.74-54.3 10.9a222 222 0 0 0-15.65 6.86c-12.23 5.75-24.88 11.69-40.94 12.16q-3.5.07-6.85-.06m-81.16-18.78c13.48.58 28.66 5.18 43.14 10.1 13.3 4.5 27.72 8.85 44.82 8.35 15.8-.48 28.35-6.37 40.49-12.07a224 224 0 0 1 15.7-6.88c16.42-6.22 35.82-8.63 54.58-10.97 3.37-.43 6.87-.86 10.3-1.31 3.71-.5 7.52-1.03 11.63-1.63a661 661 0 0 0 44-7.73c3.31-.72 6.74-1.51 9.26-2.72 2.25-1.07 3.46-2.41 4.65-3.7.68-.74 1.37-1.5 2.26-2.2 6.64-5.28 18.73-10.39 37-15.6 15.85-4.55 33.62-7.52 50.81-10.4 9.63-1.62 19.59-3.28 29.1-5.2 30.65-6.18 54.02-16.17 62.53-26.72 2.6-3.23 4.08-6.46 5.5-9.59 1.55-3.4 3.15-6.92 6.22-10.55 4.16-4.95 11.15-9.76 17.91-14.43l3.39-2.35c4.35-3.03 8.41-6.03 10.43-9.34q2.83-4.67-.38-9.23c-2.58-3.65-8.17-7.15-16.63-10.4-3.13-1.2-6.5-2.36-9.74-3.49-9.33-3.22-18.98-6.55-23.86-11.2-2.52-2.42-3.6-4.89-3.34-7.56.5-4.82 5.71-9.08 10.57-12.7 3.89-2.91 8.18-5.87 12.33-8.74 4.11-2.83 8.36-5.76 12.26-8.66 7.51-5.6 14.16-11.67 11.99-18.2-1.9-5.73-10.68-9.85-20.29-13.92l-.09-.03c-15.03-6.37-30.59-12.94-37.78-21.77-3.13-3.83-4.53-7.83-4.29-12.23.3-5.57 3.23-11.12 6.06-16.48 2.9-5.5 5.9-11.18 5.92-16.75.01-1.76-.27-3.5-.84-5.34-4.19-13.35-26-23.43-47.08-33.16l-7.66-3.56c-17.3-8.14-32.01-15.71-36.85-25.93-1.6-3.36-2.07-6.94-2.55-10.4-.77-5.7-1.57-11.6-7.41-16.4-6.86-5.63-18.8-7.91-27.17-9.13-2.61-.38-5.27-.75-8.12-1.1-2.17-.14-4.42-.26-6.6-.37-6.17-.32-12.56-.65-18.85-1.5-28.61-3.86-48.65-14.11-64.76-22.34l-.89-.46c-9.57 2.56-18.92 5.68-28.82 8.98-4.79 1.6-9.73 3.25-14.7 4.83a288 288 0 0 1-12.8 3.76c-11.47 3.04-22.6 4.27-29.77 3.3-6.39-.88-12.42-2.83-18.26-4.7a288 288 0 0 0-9.92-2.93q-4.27-1.18-8.05-2.35l-1.8-.56c-3.6-1.14-6.7-2.12-10.56-2.58a27 27 0 0 0-5.96-.19c-11.85 1.19-15.85 3.62-21.91 7.3-1.54.92-3.12 1.88-5 2.94a649 649 0 0 1-11.06 5.99l-6.1 3.27c-13.4 7.3-29.37 14-46.28 21.09-9.42 3.95-19.16 8.04-28.34 12.2q-6 2.73-11.7 5.37c-11.94 5.52-23.23 10.74-36.28 15.63a378 378 0 0 1-10.34 3.7c-3.98 1.37-8.16 2.76-12.2 4.1-18.23 6.09-37.09 12.37-50.72 20.23-15.01 8.66-22.72 18.09-31.66 29l-3.24 3.95-2.42 2.9c-10.15 12.19-20.64 24.8-36.47 35.77-3 2.07-6.2 4.11-9.32 6.08-5.48 3.47-11.14 7.06-15.7 10.92-9.92 8.4-14.72 17.98-19.36 27.24-1.93 3.83-3.91 7.8-6.24 11.66-6.99 11.6-17.43 22.75-27.54 33.54a463 463 0 0 0-14.8 16.3c-6.3 7.49-13.37 17.27-12.04 26.48 1.35 9.35 10.3 17.05 27.32 23.55 7.2 2.75 15.6 5.12 23.73 7.41 16.1 4.54 32.76 9.24 41.34 17.17q1.26 1.16 2.26 2.35c3.99 4.78 5.44 10.37 6.84 15.78 1.98 7.7 3.86 14.96 12.44 19.96 5.26 3.07 12.11 5.06 21.56 6.27 13.45 1.71 27.16 2.46 40.42 3.19 17.42.95 33.88 1.85 49.68 4.75a182 182 0 0 1 23.47 5.93c5.22 1.7 10.21 3.57 15.49 5.55a381 381 0 0 0 16.96 6.05c12.56 4.05 25.32 6.34 35 6.26 3.33-.03 6.27-.29 8.96-.56l1.65-.17c3.76-.4 7.66-.8 12.23-.77q1.14 0 2.34.05"/><path fill="#092a57" fill-opacity=".18" d="M617.97 507.13c-11.07-.48-20.8-2.56-28.6-4.55-3.16-.8-6.33-1.66-9.69-2.56-10.5-2.82-21.37-5.73-31.23-7.1-3.67-.5-6.99-.82-10.2-1.13l-2.4-.24c-2.37-.24-5.2-.54-8.22-.98-8.47-1.23-18.84-3.77-30.85-7.56l-5.82-1.86c-8.52-2.73-16.57-5.3-25.1-7.23a149 149 0 0 0-22.63-3.3c-11.36-.78-23.38-.25-35 .28-15.88.7-32.3 1.44-47.83-1.06-8.34-1.34-14.74-3.77-19.57-7.42-6.45-4.87-8.45-11.3-10.57-18.1-1.78-5.69-3.62-11.58-8.33-16.42a28 28 0 0 0-2.4-2.16c-9.4-7.59-26.8-11.82-43.63-15.9a387 387 0 0 1-21.25-5.6c-19.11-5.8-29.12-12.55-31.47-21.22-2.35-8.64 4.08-17.79 10.28-25.67a684 684 0 0 1 15.92-19.07c7.88-9.21 16.03-18.74 22.96-28.3 1.79-2.45 3.53-4.96 5.2-7.38 6.71-9.64 13.64-19.62 24.77-28.49 5.49-4.37 12.06-8.48 18.43-12.45l5.57-3.5c19.77-12.6 33.02-23.72 41.7-34.98 3.37-4.4 5.78-8.77 8.13-13 4.16-7.47 8.08-14.54 16.72-21.22 13.12-10.13 35.96-17.66 58.7-24.3l3.18-.92 7.31-2.14c20.23-5.96 36-11.17 51.18-16.88 31.44-11.9 53.63-22.92 67.83-33.7 4.09-3.1 8.82-6.78 12.94-10.59 1.9-1.76 3.11-3.3 4.19-4.66 2.84-3.61 4.89-6.22 16.76-8.73 2.13-.45 4.38-.59 6.11-.65 4.3-.16 8.48.18 13.99 1.12 7.36 1.27 13.32 2.86 17.7 4.73 2.08.9 3.96 1.82 5.79 2.73 3.1 1.52 6.04 2.97 9.5 4.02 6.78 2.07 17.66 1.95 29.12-.3a134 134 0 0 0 12.63-3.14c10.6-3.2 20.22-7.16 29.53-11 3.51-1.45 6.84-2.82 10.22-4.16l.31-.12.23.17c16.07 12.55 34.87 24.44 63.36 26.47 7.83.56 15.76.13 23.44-.28l3.96-.21c2.88-.1 6.28-.2 9.77-.22 10.66-.06 24.99 1.06 32.7 6.76 6.67 4.93 6.1 11.35 5.54 17.56-.33 3.57-.66 7.27.35 10.7 3.22 11.09 20.24 18.89 36.7 26.43l.4.18c19.22 8.81 43.14 19.78 43.5 33.96q.07 2.4-.62 4.79c-1.23 4.3-4.35 8.6-7.38 12.76-3.74 5.16-7.61 10.48-8.02 15.93-.29 3.74 1.02 7.2 3.99 10.57 5.66 6.44 16.83 11.66 27.63 16.7l5.42 2.55c7.17 3.42 15 7.53 17.03 12.95 2.43 6.49-3.14 12.84-8.9 18.2a255 255 0 0 1-10.2 8.81c-3.5 2.93-7.14 5.94-10.3 8.9-4.08 3.81-7.89 7.96-8.13 12.39-.14 2.5.82 4.8 2.95 7.06 4.47 4.74 13.6 8.04 22.44 11.24 2.81 1.02 5.73 2.08 8.46 3.17 7.94 3.16 13.27 6.6 15.83 10.21 2.14 3.01 2.28 6.06.42 9.04-1.99 3.2-6.09 6.03-10.47 8.88l-5.64 3.63c-5.95 3.79-12.08 7.7-16.99 11.59a163 163 0 0 0-9.43 8.19 132 132 0 0 1-11.4 9.65c-12.81 9.41-35.12 18.3-62.81 25-11.97 2.92-24.52 5.48-36.64 7.96-12.82 2.62-26.08 5.32-38.58 8.44-8.31 2.06-15.97 4.52-23.37 6.89-5.8 1.85-11.27 3.6-16.73 5.07a14 14 0 0 0-3.88 1.86c-1.13.7-2.3 1.42-3.95 1.98-2.38.82-5.18 1.4-8.08 1.96-5.66 1.1-11.48 2.16-17.1 3.19a1047 1047 0 0 0-27.9 5.35c-17.54 3.58-34.52 7.32-49.5 13.75a298 298 0 0 0-10.18 4.69c-10.67 5.08-21.72 10.34-35.53 11.65-4.95.46-9.73.54-14.27.34m-178.58-37.11q1.98.07 3.93.21c7.71.53 15.4 1.66 22.83 3.34 8.58 1.93 16.65 4.52 25.19 7.25l5.82 1.86c11.93 3.77 22.25 6.3 30.65 7.52a189 189 0 0 0 10.57 1.21c3.22.31 6.55.63 10.25 1.14 9.94 1.37 20.84 4.3 31.4 7.13 3.35.9 6.51 1.75 9.67 2.56 20.8 5.28 33.6 5 42.42 4.16 13.6-1.28 24.56-6.5 35.16-11.55a331 331 0 0 1 10.2-4.7c15.07-6.47 32.1-10.23 49.7-13.82a1096 1096 0 0 1 27.92-5.36c5.62-1.03 11.44-2.09 17.09-3.19a61 61 0 0 0 7.93-1.91 18 18 0 0 0 3.78-1.92c1.25-.77 2.42-1.5 4.1-1.94 5.45-1.47 10.9-3.22 16.68-5.07 7.42-2.37 15.1-4.83 23.44-6.9 12.52-3.12 25.8-5.83 38.63-8.45 12.11-2.48 24.65-5.03 36.6-7.94 27.57-6.68 49.77-15.52 62.51-24.88 4.35-3.2 7.76-6.31 11.36-9.62 2.9-2.65 5.9-5.4 9.45-8.2 4.93-3.9 11.09-7.83 17.05-11.63q2.84-1.8 5.64-3.61c4.33-2.83 8.39-5.62 10.34-8.76 1.8-2.9 1.66-5.87-.41-8.8-2.51-3.54-7.75-6.92-15.58-10.04-2.72-1.09-5.63-2.14-8.44-3.16-8.91-3.22-18.12-6.56-22.68-11.38-2.18-2.31-3.17-4.68-3.02-7.24.25-4.51 4.1-8.71 8.22-12.57 3.17-2.96 6.8-5.99 10.3-8.91 3.46-2.89 7.04-5.87 10.2-8.8 5.7-5.3 11.2-11.58 8.82-17.93-1.99-5.32-9.72-9.37-16.8-12.76l-5.42-2.54c-10.85-5.07-22.08-10.31-27.8-16.83-3.02-3.43-4.34-6.95-4.05-10.74.41-5.51 4.3-10.87 8.06-16.05 3-4.14 6.11-8.43 7.34-12.69q.67-2.35.61-4.73c-.35-14-24.14-24.91-43.25-33.67l-.4-.18c-15.78-7.24-33.68-15.44-36.93-26.67-1.03-3.46-.7-7.18-.37-10.77.58-6.43 1.13-12.5-5.4-17.32-7.52-5.56-21.6-6.65-32.08-6.59-3.47.02-6.86.12-9.72.21l-3.93.21c-7.72.42-15.71.85-23.63.28-28.65-2.04-47.54-13.9-63.66-26.47-3.27 1.3-6.49 2.63-9.9 4.03-9.32 3.84-18.98 7.82-29.61 11.02a135 135 0 0 1-12.75 3.18c-11.66 2.29-22.8 2.4-29.77.27-3.53-1.07-6.5-2.53-9.63-4.08-1.81-.9-3.68-1.81-5.75-2.7-4.31-1.84-10.19-3.41-17.46-4.66a64 64 0 0 0-13.7-1.1c-1.67.06-3.85.18-5.88.61-11.58 2.45-13.48 4.87-16.35 8.52a37 37 0 0 1-4.23 4.7 180 180 0 0 1-12.97 10.63c-14.26 10.81-36.5 21.87-68.01 33.79-15.2 5.72-31 10.94-51.25 16.9l-7.33 2.15-3.18.92c-22.65 6.6-45.4 14.1-58.44 24.17-8.57 6.64-12.49 13.68-16.63 21.12-2.35 4.23-4.78 8.6-8.16 13.03-8.7 11.3-21.99 22.45-41.8 35.07l-5.59 3.51c-6.34 3.97-12.91 8.06-18.37 12.43-11.09 8.83-17.7 18.34-24.7 28.4a406 406 0 0 1-5.2 7.4c-6.93 9.56-15.09 19.1-22.98 28.31a691 691 0 0 0-15.9 19.06c-6.18 7.84-12.57 16.92-10.25 25.48 2.35 8.66 11.95 15.12 31.12 20.94 6.6 2.03 14.02 3.83 21.19 5.57 16.92 4.11 34.41 8.37 43.94 16.05q1.32 1.06 2.43 2.2c4.75 4.89 6.6 10.81 8.4 16.54 2.1 6.75 4.1 13.13 10.44 17.93 4.73 3.57 11 5.95 19.18 7.27 15.4 2.48 31.74 1.75 47.54 1.04 10.36-.46 21.01-.94 31.26-.5"/><path fill="#092a57" fill-opacity=".18" d="M626.09 475.47c-10.16-.45-21.1-2.31-33.33-5.65-11.8-3.22-23.18-7.4-33.23-11.1-5.46-2-10.01-3.56-14.34-4.9-25.37-7.82-47.4-10.2-71.45-7.73-2.56.26-5.31.6-8.64 1.06-4.03.55-8.12 1.18-12.07 1.78-19.4 2.97-37.73 5.77-54.2 1.59-15.02-3.82-19.08-12.21-23.38-21.1-1.5-3.1-3.05-6.3-5.1-9.25a29 29 0 0 0-7.28-7.4c-3.76-2.7-8.95-5.03-15.86-7.16-9.01-2.77-19.8-4.85-30.25-6.87-22.65-4.37-46.08-8.89-52.08-20.72-3.77-7.42 1.13-15.64 5.46-22.89 11.31-18.93 23.48-34.33 37.21-47.06 14.66-13.56 32.13-25.54 47.29-35.47 3.15-2.06 5.93-3.85 8.5-5.49L370 263c13.3-8.22 27.06-16.7 34.11-26.74 3.58-5.09 4.97-10.16 6.32-15.07 1.68-6.1 3.26-11.85 8.74-17.3 6.78-6.76 19.02-12.54 38.53-18.2 4.93-1.42 9-2.55 12.8-3.54a909 909 0 0 1 32.25-7.55c9.42-2.09 19.15-4.24 28.5-6.6a264 264 0 0 0 17.22-4.92c8.5-2.77 16.25-6.16 23.69-10.4 11.5-6.53 20.2-14.91 24.47-23.57.56-1.15.91-2.28 1.12-3.58q.16-1.12.22-2.14c.27-3.78.46-6.51 10.75-10.63 9.3-3.72 22.17-4.77 30.59-2.5q2.15.58 3.83 1.43c2 1.02 3.6 2.23 5.13 3.4a29 29 0 0 0 5.99 3.81c6.9 3.08 21.9 4.26 38.54-.42 13.27-3.74 23.98-9.88 33.43-15.3l.34-.19.26.22c12.96 10.9 26.58 18.97 40.46 24a79 79 0 0 0 20.6 4.54c8.48.7 16.54-.01 25.09-.75 3.43-.3 7-.61 10.63-.83 4.18-.25 8.66-.31 13.3-.19 11.52.33 19.58 1.7 24.63 4.2 2.84 1.42 4.77 3.11 5.88 5.19 1.52 2.82 1.28 5.89 1.02 9.14-.18 2.38-.38 4.85.13 7.32q.24 1.2.7 2.4c3.24 8.63 16.4 15.88 29.11 22.89 2.78 1.53 5.4 2.98 7.92 4.44 13.78 7.97 20.76 15.93 20.76 23.63-.01 2.5-.79 5.03-2.3 7.48-2.37 3.8-6.57 7.47-10.63 11.02-2.74 2.4-5.57 4.86-7.83 7.36-3.16 3.48-4.7 6.44-4.9 9.32a9 9 0 0 0 1.22 5.13c3.3 5.9 12.42 10.25 22.1 14.85 10.2 4.86 20.74 9.89 23.67 16.87 3.42 8.13-4.39 16.74-11.94 25.06-7.98 8.8-15.52 17.1-10.45 24.63 1.48 2.2 4 4.2 7.93 6.29 2.62 1.4 5.6 2.7 8.47 3.95 1.85.8 3.75 1.64 5.54 2.49 5.05 2.4 16.22 8.78 10.84 16.2-1.95 2.68-5.75 4.96-9.8 7.27a553 553 0 0 1-29.06 15.33 668 668 0 0 1-97.34 38.73c-23.42 7.19-47.85 13.05-74.68 17.91l-4.9.88c-10.4 1.85-21.15 3.75-31.02 6.99-9.9 3.23-18.41 7.8-26.64 12.23-11.3 6.05-22.97 12.32-38.12 15a98 98 0 0 1-21.13 1.3m-127.5-30.55c15.25.66 30.4 3.46 46.98 8.57 4.34 1.34 8.92 2.9 14.4 4.91 10.02 3.7 21.39 7.88 33.13 11.09 20.97 5.72 38.1 7.08 53.91 4.3 14.98-2.63 26.6-8.87 37.82-14.9 8.27-4.43 16.81-9.02 26.78-12.28 9.95-3.25 20.75-5.17 31.18-7.03l4.9-.87c26.8-4.86 51.18-10.7 74.55-17.88a667 667 0 0 0 97.2-38.68 553 553 0 0 0 29.02-15.31c4-2.28 7.75-4.53 9.66-7.14 5.22-7.2-5.72-13.44-10.66-15.79-1.77-.84-3.68-1.67-5.5-2.47-2.9-1.26-5.89-2.56-8.53-3.98-4.01-2.14-6.59-4.18-8.1-6.44-5.17-7.67 2.42-16.05 10.47-24.91 7.5-8.27 15.26-16.81 11.9-24.82-2.89-6.86-13.35-11.84-23.46-16.67-9.32-4.44-18.95-9.03-22.3-15.02a9.4 9.4 0 0 1-1.24-5.25c.18-2.94 1.76-5.94 4.96-9.47 2.28-2.51 5.12-5 7.86-7.4 4.04-3.53 8.23-7.18 10.56-10.94a14 14 0 0 0 2.27-7.36c0-7.6-6.91-15.47-20.56-23.38q-3.77-2.16-7.91-4.43c-12.8-7.05-26.02-14.33-29.3-23.07q-.47-1.25-.7-2.44c-.52-2.5-.33-4.98-.14-7.38.25-3.22.49-6.26-1-9.02q-1.59-3-5.68-5c-4.93-2.44-12.82-3.79-24.15-4.1-4.61-.13-9.05-.07-13.19.18a380 380 0 0 0-10.59.83c-8.6.75-16.73 1.46-25.34.75a80 80 0 0 1-20.9-4.6c-13.88-5.03-27.48-13.06-40.42-23.89-9.4 5.4-20.07 11.46-33.29 15.18-16.94 4.78-32.3 3.54-39.39.38-2.51-1.13-4.34-2.53-6.12-3.89-1.52-1.16-3.08-2.36-5.04-3.34q-1.6-.82-3.65-1.36c-8.17-2.21-20.7-1.17-29.79 2.46-10.01 4-10.2 6.66-10.46 10.33q-.06 1.04-.22 2.16c-.2 1.32-.57 2.47-1.14 3.64-4.3 8.72-13.04 17.16-24.63 23.74a128 128 0 0 1-23.85 10.47 266 266 0 0 1-17.3 4.94c-9.35 2.35-19.1 4.51-28.53 6.6a910 910 0 0 0-32.2 7.55c-3.8.99-7.86 2.11-12.77 3.54-19.37 5.6-31.52 11.33-38.23 18.02-5.42 5.4-7 11.13-8.66 17.19-1.36 4.92-2.76 10.01-6.35 15.14-7.1 10.1-20.9 18.62-34.24 26.85q-3.36 2.06-6.65 4.13a591 591 0 0 0-8.5 5.48c-15.14 9.92-32.6 21.88-47.22 35.42-13.71 12.7-25.86 28.08-37.15 46.98l-.36-.05.36.05c-4.3 7.2-9.17 15.36-5.45 22.68 5.9 11.64 29.14 16.12 51.62 20.46 10.47 2.02 21.3 4.11 30.36 6.9 7 2.16 12.26 4.53 16.08 7.26a30 30 0 0 1 7.39 7.5 68 68 0 0 1 5.1 9.28c4.27 8.8 8.3 17.12 23 20.85 16.2 4.12 34.39 1.33 53.65-1.61 3.95-.61 8.05-1.23 12.08-1.79 3.35-.46 6.1-.8 8.7-1.06 8.48-.87 16.74-1.15 24.98-.79"/><path fill="#092a57" fill-opacity=".18" d="M733.6 395.38c-15.93-.69-29.14-6.68-41.92-12.47l-4.82-2.17c-15-6.67-31.26-12.93-48.73-13.4-6.23-.16-12.47.4-19.08 1.7-7 1.37-13.65 3.44-20.1 5.44-10.94 3.4-22.25 6.9-35.57 7.18q-2.55.04-5.05-.07c-22.8-.98-42.48-11.14-52.57-17.4l-1.27-.8c-7.7-4.8-15.66-9.75-26.69-11.52-4.59-.74-9.4-.83-14.05-.91-2.3-.04-4.66-.09-6.99-.2a97 97 0 0 1-10.91-1.2c-22.07-3.69-39.78-14.6-43.07-26.53-3.4-12.4 6.76-25.24 26.57-33.55 5.63-2.36 12.02-4.39 18.2-6.35 11.34-3.6 23.05-7.32 30.19-13.15 5.88-4.82 8.02-10.56 10.08-16.1 1.85-4.96 3.75-10.1 8.33-14.58 9.25-9.07 21.9-9.84 35.29-10.67 7.34-.45 14.93-.92 22.3-2.8 3.91-1 7.3-3.55 10.89-6.25 6.48-4.88 13.82-10.42 26.13-7.31a46 46 0 0 1 5.44 1.75c2.04.8 3.79 1.77 5.49 2.71 2.3 1.29 4.7 2.61 7.78 3.46 9.65 2.62 21.88-1.05 27.25-6.12 2.68-2.52 4.32-5.29 5.9-7.97 1.51-2.55 3.07-5.2 5.54-7.6 9.04-8.9 28.57-13.2 49.48-17.17l.13.18-.13-.18c23.2-4.41 39.13-3.67 47.38 2.2 5.8 4.13 5.53 9.5 5.26 14.7-.3 6.03-.6 11.73 8.2 15.23 9.86 3.93 23.04.96 28.25-.5q2.72-.77 5.36-1.59c6.63-2.03 13.5-4.13 21.56-4.18a41.4 41.4 0 0 1 19.65 4.69c7.81 4.15 12.57 10.43 12.13 16-.78 9.67-12.13 17.72-23.13 24.33l-4.2 2.5c-10.02 5.93-20.38 12.06-25.26 19.9-3.2 5.2-3.13 10.3.2 14.36 4.54 5.56 14.58 9.22 24.3 12.76 11.82 4.3 22.98 8.35 24.57 15.51 1.38 6.24-6.36 12.7-20.7 17.3a271 271 0 0 1-11.42 3.26c-8.06 2.18-16.38 4.43-22.71 7.86-9.61 5.2-13.68 13.02-10.37 19.91.77 1.63 2.06 3.24 3.3 4.8 2.3 2.85 4.68 5.81 3.82 8.95-2.1 7.73-21.96 12.97-39.84 15.3l-.52.07c-3.3.43-6.43.84-9.72.7zM639.42 367c17.2.74 33.2 6.88 47.93 13.44l4.82 2.17c12.73 5.77 25.88 11.74 41.63 12.38 3.17.14 6.24-.26 9.48-.7l.52-.06c17.64-2.3 37.23-7.44 39.28-14.99.83-3.02-1.4-5.8-3.77-8.75-1.25-1.57-2.56-3.19-3.33-4.84-3.38-7.02.77-14.97 10.54-20.27 6.41-3.47 14.8-5.74 22.9-7.93 3.8-1.02 7.72-2.09 11.38-3.26 14.1-4.5 21.7-10.83 20.35-16.92-1.55-6.99-12.57-11-24.25-15.25-9.8-3.56-19.93-7.25-24.56-12.92-3.4-4.15-3.47-9.34-.22-14.62 4.92-7.91 15.34-14.08 25.4-20.04l4.2-2.5c19.46-11.68 22.52-18.73 22.95-24.08.43-5.48-4.24-11.65-11.92-15.73a40 40 0 0 0-19.1-4.57c-7.87.04-14.64 2.12-21.2 4.13-1.75.53-3.58 1.1-5.38 1.6-5.34 1.5-18.86 4.53-29.06.46-9.1-3.62-8.8-9.41-8.49-15.55.27-5.13.53-10.44-5.12-14.47-8.03-5.7-23.68-6.4-46.52-2.06-20.77 3.94-40.15 8.21-49.09 16.99-2.42 2.38-3.97 5-5.47 7.54-1.6 2.7-3.24 5.49-5.97 8.04-5.53 5.24-18.2 9-28.24 6.27-3.19-.86-5.63-2.22-7.99-3.53-1.67-.93-3.4-1.9-5.38-2.67a45 45 0 0 0-5.32-1.71c-11.73-2.96-18.57 2.2-25.19 7.18-3.64 2.75-7.08 5.34-11.16 6.38-7.49 1.9-15.14 2.38-22.55 2.83-13.19.81-25.65 1.58-34.72 10.47-4.52 4.43-6.42 9.54-8.25 14.47-2.08 5.58-4.23 11.36-10.18 16.23-7.23 5.91-19.02 9.66-30.43 13.28-6.16 1.95-12.52 3.98-18.12 6.32-19.6 8.22-29.68 20.94-26.3 33.2 3.26 11.8 20.75 22.58 42.56 26.22 3.54.6 7.16.99 10.75 1.17 2.3.12 4.67.17 6.96.2 4.7.1 9.56.18 14.25.94 11.24 1.8 19.27 6.8 27.04 11.64l1.27.8c10.73 6.66 32.41 17.78 57.01 17.33 13.13-.27 24.36-3.75 35.22-7.12 6.47-2.01 13.16-4.1 20.22-5.48a88 88 0 0 1 19.39-1.72z"/><path fill="#092a57" fill-opacity=".18" d="M644.64 349.85a85 85 0 0 1-10.41-1.2c-7.72-1.3-15.85-3.78-22.87-6a125 125 0 0 1-25.07-10.72c-2.67-1.5-5.32-3.16-8.13-4.92a169 169 0 0 0-12.03-7.1c-5.6-2.91-12.51-5.32-20.52-7.17a242 242 0 0 0-8.26-1.68l-4.97-.98a142 142 0 0 1-6.81-1.55c-13.05-3.32-27.06-9.9-27.27-18.44-.12-4.9 4-9.56 11.65-13.13 3.78-1.76 8.36-3.25 12.77-4.69 2.4-.78 4.88-1.58 7.19-2.42 2.47-.9 4.75-1.81 6.97-2.7 3.8-1.52 7.4-2.96 11.53-4.16 7.14-2.08 14.94-3 22.49-3.9 3.79-.44 7.7-.9 11.53-1.5 2.95-.47 5.9-1.13 8.78-1.77 5.12-1.14 10.4-2.33 16.26-2.57l.35-.01q1.48-.08 3.03-.1l3.88-.06q2.67-.01 5.56-.1c6.19-.19 12.82-1.28 17.28-2.09l2.14-.4c4.65-.84 9.04-1.64 13.76-2.23 8.85-1.13 19.66-1.24 32.15-.33 5.22.37 12.36.9 17.8 3.08a35 35 0 0 1 7.35 4.2 38 38 0 0 0 7.38 4.27c2.98 1.25 6.3 1.98 9.22 2.62l1.34.29c2.44.52 4.97 1.07 7.57 1.94 5.13 1.73 10.03 4.97 12.79 8.47a20.4 20.4 0 0 1 4.02 9.32c.32 1.7.47 3.38.62 5.16.13 1.4.26 2.85.48 4.36.32 2.2.8 3.93 1.48 5.47.69 1.54 1.6 2.96 2.48 4.35 1.92 3.02 3.73 5.88 2.85 9.26-.76 2.89-3.89 5.67-9.04 8.05-3.75 1.72-8.28 3.14-12.65 4.5l-2.23.7a421 421 0 0 0-11.1 3.73q-1.74.61-3.34 1.15l-1.88.67c-2.16.77-4.2 1.5-6.82 2a298 298 0 0 1-14.48 2.3c-13.14 1.85-26.7 3.77-34.77 9.09q-1.4.95-2.69 1.89a53 53 0 0 1-4.2 2.84c-2.92 1.73-7.27 2.46-13.16 2.2m33.82-101.96c-9.45-.4-17.78-.16-24.82.74-4.69.59-9.06 1.39-13.7 2.23l-2.14.4c-4.5.81-11.2 1.92-17.49 2.11q-2.9.08-5.57.1-1.92 0-3.87.05-1.53.04-3 .1l-.35.01c-5.73.24-10.96 1.4-16.02 2.54-2.89.65-5.86 1.31-8.85 1.79-3.86.6-7.79 1.07-11.58 1.52-7.84.93-15.25 1.8-22.3 3.85a123 123 0 0 0-11.43 4.13q-3.31 1.34-7 2.7c-2.33.85-4.82 1.66-7.22 2.44-4.39 1.43-8.93 2.9-12.67 4.65-7.48 3.49-11.52 8.05-11.4 12.84.22 8.37 14.01 14.83 26.85 18.1 2.12.53 4.33 1.03 6.77 1.54l4.96.97c2.73.53 5.55 1.07 8.3 1.7 8.1 1.85 15.08 4.3 20.74 7.25a168 168 0 0 1 12.08 7.12c2.8 1.75 5.44 3.42 8.1 4.9a124 124 0 0 0 24.91 10.66c6.98 2.2 15.07 4.67 22.7 5.96 11.12 1.9 18.57 1.6 22.78-.9 1.5-.9 2.85-1.87 4.15-2.82q1.31-.94 2.71-1.9c8.22-5.42 21.91-7.36 35.16-9.23 5.1-.73 9.93-1.4 14.41-2.28 2.54-.5 4.54-1.2 6.66-1.97l1.9-.67 3.31-1.14c3.36-1.17 7.16-2.49 11.13-3.75l2.24-.7c4.35-1.35 8.85-2.76 12.54-4.45 5.03-2.32 8.07-5.03 8.8-7.82.86-3.3-.93-6.11-2.83-9.1-.88-1.38-1.8-2.82-2.5-4.38a20 20 0 0 1-1.5-5.52q-.3-2.26-.47-4.37c-.16-1.77-.3-3.45-.62-5.14a20 20 0 0 0-3.97-9.21c-2.7-3.43-7.49-6.61-12.5-8.3a67 67 0 0 0-7.45-1.91l-1.34-.3c-2.97-.64-6.34-1.37-9.39-2.66-3.17-1.34-5.37-2.87-7.51-4.34a34 34 0 0 0-7.21-4.13c-5.28-2.12-12.31-2.62-17.44-3q-3.63-.25-7.06-.4"/><path fill="#092a57" fill-opacity=".18" d="M637.27 319.2c-5.9-.26-11.45-1.74-15.2-4.23-2.44-1.6-4.3-3.45-6.1-5.24-2.4-2.37-4.9-4.83-8.7-6.68-4.1-2-8.8-3.4-13.34-4.77-2.17-.65-4.21-1.26-6.18-1.93-4.56-1.56-12.1-4.89-11.39-9.8.67-4.66 8.73-8.32 23.96-10.9a606 606 0 0 1 29.59-4.4c11.75-1.4 26.99-2.66 40.58.03 19.64 3.88 39.69 17.54 35.13 28.68-1.82 4.45-9.55 7.55-23.63 9.48l-2.78.38c-9.7 1.3-21.77 2.9-27.73 6.85a12 12 0 0 1-4.85 1.9 43 43 0 0 1-9.36.63m20.2-49c-9.64-.42-19.35.47-27.4 1.43a608 608 0 0 0-29.53 4.39c-14.9 2.52-22.8 6.08-23.44 10.56-.69 4.72 6.63 7.95 11.05 9.45 1.96.67 4 1.28 6.16 1.92 4.57 1.37 9.3 2.79 13.47 4.82 3.9 1.9 6.4 4.38 8.84 6.78a40 40 0 0 0 6.03 5.19c5.52 3.66 15.06 5.05 23.73 3.46a11 11 0 0 0 4.5-1.77c6.13-4.04 18.33-5.68 28.14-6.99l2.78-.37c13.78-1.89 21.34-4.9 23.1-9.19 3.65-8.96-11-23.56-34.67-28.24a86 86 0 0 0-12.75-1.44"/></svg>