<?xml version="1.0" encoding="utf-8"?>
<!-- Generator: Adobe Illustrator 21.0.0, SVG Export Plug-In . SVG Version: 6.00 Build 0)  -->
<!DOCTYPE svg PUBLIC "-//W3C//DTD SVG 1.1//EN" "http://www.w3.org/Graphics/SVG/1.1/DTD/svg11.dtd">
<svg version="1.1" id="Layer_1" xmlns="http://www.w3.org/2000/svg" xmlns:xlink="http://www.w3.org/1999/xlink" x="0px" y="0px"
	 viewBox="0 0 443.232 53.242" style="enable-background:new 0 0 443.232 53.242;" xml:space="preserve">
<style type="text/css">
	.st0{fill:#35485D;}
	.st1{fill-rule:evenodd;clip-rule:evenodd;fill:#D5440B;}
</style>
<g>
	<path class="st0" d="M85.084,30.732c-0.245,3.391-1.497,6.061-3.755,8.008c-2.259,1.948-5.234,2.923-8.928,2.923
		c-4.041,0-7.219-1.36-9.535-4.08c-2.315-2.72-3.474-6.454-3.474-11.201v-1.927c0-3.03,0.534-5.699,1.602-8.008
		c1.067-2.309,2.594-4.08,4.578-5.314c1.983-1.234,4.289-1.851,6.915-1.851c3.637,0,6.565,0.974,8.788,2.922
		c2.222,1.947,3.506,4.683,3.853,8.203h-6.493c-0.159-2.035-0.726-3.51-1.699-4.427c-0.975-0.916-2.457-1.374-4.448-1.374
		c-2.164,0-3.784,0.775-4.859,2.326c-1.075,1.552-1.627,3.958-1.655,7.219v2.381c0,3.405,0.516,5.894,1.548,7.468
		c1.031,1.572,2.658,2.358,4.881,2.358c2.005,0,3.502-0.457,4.49-1.374c0.988-0.916,1.555-2.334,1.699-4.253H85.084z"/>
	<path class="st0" d="M102.507,41.229c-0.289-0.562-0.498-1.263-0.628-2.1c-1.515,1.688-3.484,2.533-5.909,2.533
		c-2.294,0-4.195-0.664-5.703-1.992c-1.508-1.327-2.262-3.001-2.262-5.021c0-2.481,0.92-4.386,2.76-5.714
		c1.84-1.327,4.498-1.998,7.976-2.013h2.879V25.58c0-1.082-0.278-1.948-0.833-2.598c-0.556-0.649-1.433-0.974-2.63-0.974
		c-1.054,0-1.88,0.253-2.479,0.758c-0.599,0.505-0.898,1.197-0.898,2.077h-6.255c0-1.355,0.418-2.611,1.256-3.766
		c0.836-1.154,2.02-2.06,3.549-2.717c1.529-0.656,3.247-0.984,5.151-0.984c2.886,0,5.177,0.725,6.872,2.175
		c1.695,1.45,2.544,3.488,2.544,6.115v10.15c0.014,2.223,0.324,3.903,0.931,5.043v0.368H102.507z M97.335,36.878
		c0.923,0,1.774-0.205,2.554-0.616c0.779-0.411,1.356-0.964,1.731-1.656V30.58h-2.338c-3.131,0-4.798,1.082-4.999,3.246
		l-0.022,0.368c0,0.779,0.274,1.422,0.823,1.927C95.632,36.626,96.382,36.878,97.335,36.878z"/>
	<path class="st0" d="M119.303,41.229h-6.276V7.984h6.276V41.229z"/>
	<path class="st0" d="M124.412,11.749c0-0.938,0.313-1.71,0.942-2.315c0.628-0.606,1.482-0.909,2.564-0.909
		c1.068,0,1.919,0.303,2.555,0.909c0.635,0.605,0.952,1.378,0.952,2.315c0,0.952-0.321,1.731-0.963,2.338
		c-0.643,0.606-1.49,0.909-2.544,0.909c-1.053,0-1.901-0.304-2.543-0.909C124.732,13.481,124.412,12.701,124.412,11.749z
		 M131.056,41.229h-6.276V17.81h6.276V41.229z"/>
	<path class="st0" d="M137.918,41.229v-18.83h-3.484V17.81h3.484v-1.991c0-2.626,0.754-4.664,2.262-6.114
		c1.508-1.45,3.618-2.176,6.331-2.176c0.866,0,1.927,0.144,3.182,0.43l-0.064,4.809c-0.52-0.13-1.155-0.195-1.905-0.195
		c-2.352,0-3.527,1.113-3.527,3.34v1.898h4.653v4.589h-4.653v18.83H137.918z"/>
	<path class="st0" d="M151.121,29.303c0-2.323,0.447-4.393,1.342-6.212c0.895-1.818,2.183-3.225,3.863-4.221
		c1.681-0.995,3.633-1.493,5.854-1.493c3.16,0,5.739,0.967,7.738,2.9c1.998,1.934,3.113,4.56,3.344,7.878l0.044,1.601
		c0,3.594-1.003,6.476-3.009,8.647c-2.006,2.172-4.697,3.258-8.073,3.258c-3.377,0-6.071-1.083-8.084-3.247
		c-2.014-2.164-3.02-5.108-3.02-8.831V29.303z M157.376,29.747c0,2.226,0.419,3.927,1.256,5.104
		c0.836,1.178,2.034,1.767,3.593,1.767c1.515,0,2.698-0.581,3.55-1.745c0.851-1.163,1.276-3.023,1.276-5.581
		c0-2.183-0.426-3.873-1.276-5.073c-0.852-1.199-2.05-1.799-3.594-1.799c-1.529,0-2.713,0.596-3.549,1.788
		C157.795,25.401,157.376,27.247,157.376,29.747z"/>
	<path class="st0" d="M190.319,23.675c-0.852-0.115-1.602-0.173-2.251-0.173c-2.367,0-3.918,0.801-4.653,2.402v15.324h-6.256V17.81
		h5.909l0.173,2.792c1.256-2.149,2.994-3.225,5.217-3.225c0.692,0,1.342,0.094,1.947,0.281L190.319,23.675z"/>
	<path class="st0" d="M199.085,17.81l0.194,2.706c1.674-2.093,3.918-3.139,6.732-3.139c2.481,0,4.329,0.729,5.541,2.186
		c1.212,1.458,1.832,3.637,1.861,6.537v15.129h-6.255V26.217c0-1.331-0.289-2.296-0.866-2.896c-0.577-0.601-1.536-0.9-2.879-0.9
		c-1.76,0-3.08,0.752-3.96,2.256v16.553h-6.256V17.81H199.085z"/>
	<path class="st0" d="M218.11,11.749c0-0.938,0.313-1.71,0.941-2.315c0.628-0.606,1.482-0.909,2.564-0.909
		c1.068,0,1.919,0.303,2.555,0.909c0.635,0.605,0.952,1.378,0.952,2.315c0,0.952-0.321,1.731-0.963,2.338
		c-0.643,0.606-1.49,0.909-2.544,0.909c-1.053,0-1.901-0.304-2.543-0.909C218.43,13.481,218.11,12.701,218.11,11.749z
		 M224.755,41.229h-6.276V17.81h6.276V41.229z"/>
	<path class="st0" d="M243.477,41.229c-0.289-0.562-0.498-1.263-0.628-2.1c-1.515,1.688-3.484,2.533-5.909,2.533
		c-2.294,0-4.195-0.664-5.703-1.992c-1.508-1.327-2.262-3.001-2.262-5.021c0-2.481,0.92-4.386,2.76-5.714
		c1.84-1.327,4.498-1.998,7.976-2.013h2.879V25.58c0-1.082-0.278-1.948-0.833-2.598c-0.556-0.649-1.433-0.974-2.63-0.974
		c-1.054,0-1.88,0.253-2.479,0.758c-0.599,0.505-0.898,1.197-0.898,2.077h-6.255c0-1.355,0.418-2.611,1.256-3.766
		c0.836-1.154,2.02-2.06,3.549-2.717c1.529-0.656,3.247-0.984,5.151-0.984c2.886,0,5.177,0.725,6.872,2.175
		c1.695,1.45,2.544,3.488,2.544,6.115v10.15c0.014,2.223,0.324,3.903,0.931,5.043v0.368H243.477z M238.304,36.878
		c0.923,0,1.774-0.205,2.554-0.616c0.779-0.411,1.356-0.964,1.731-1.656V30.58h-2.338c-3.131,0-4.798,1.082-4.999,3.246
		l-0.022,0.368c0,0.779,0.274,1.422,0.823,1.927C236.601,36.626,237.352,36.878,238.304,36.878z"/>
	<path class="st0" d="M278.606,41.229h-2.684V26.121h-18.009v15.107h-2.662V9.715h2.662V23.87h18.009V9.715h2.684V41.229z"/>
	<path class="st0" d="M295.077,41.662c-1.991,0-3.791-0.491-5.4-1.473c-1.608-0.98-2.86-2.348-3.755-4.102
		c-0.895-1.753-1.342-3.719-1.342-5.897V29.26c0-2.251,0.436-4.278,1.31-6.082c0.872-1.804,2.088-3.222,3.646-4.254
		c1.559-1.031,3.247-1.547,5.065-1.547c2.842,0,5.097,0.971,6.764,2.911c1.666,1.94,2.5,4.592,2.5,7.954v1.45h-16.71v0.498
		c0,2.655,0.761,4.866,2.284,6.634c1.522,1.768,3.438,2.651,5.746,2.651c1.385,0,2.608-0.252,3.669-0.758
		c1.061-0.505,2.023-1.312,2.89-2.424l1.623,1.233C301.461,40.285,298.699,41.662,295.077,41.662z M294.601,19.584
		c-1.948,0-3.59,0.715-4.925,2.144c-1.335,1.429-2.146,3.348-2.435,5.757h14.047v-0.281c-0.072-2.251-0.714-4.083-1.926-5.497
		C298.15,20.292,296.563,19.584,294.601,19.584z"/>
	<path class="st0" d="M323.69,41.229c-0.26-0.735-0.426-1.825-0.497-3.268c-0.909,1.183-2.067,2.096-3.475,2.737
		c-1.406,0.643-2.897,0.964-4.469,0.964c-2.252,0-4.073-0.628-5.466-1.884c-1.393-1.255-2.089-2.842-2.089-4.762
		c0-2.279,0.949-4.083,2.847-5.411c1.897-1.327,4.541-1.991,7.933-1.991h4.696v-2.662c0-1.674-0.516-2.99-1.547-3.95
		c-1.032-0.959-2.536-1.439-4.513-1.439c-1.805,0-3.298,0.462-4.48,1.386c-1.184,0.924-1.775,2.034-1.775,3.333l-2.597-0.021
		c0-1.861,0.865-3.474,2.597-4.838c1.731-1.363,3.86-2.045,6.386-2.045c2.611,0,4.671,0.653,6.179,1.959
		c1.508,1.306,2.284,3.127,2.327,5.465v11.082c0,2.266,0.238,3.961,0.714,5.086v0.26H323.69z M315.552,39.368
		c1.731,0,3.279-0.418,4.642-1.255c1.363-0.837,2.356-1.955,2.976-3.355v-5.151h-4.632c-2.583,0.029-4.603,0.502-6.06,1.418
		c-1.458,0.917-2.186,2.175-2.186,3.777c0,1.312,0.487,2.402,1.461,3.267C312.727,38.935,313.994,39.368,315.552,39.368z"/>
	<path class="st0" d="M335.551,41.229h-2.597V7.984h2.597V41.229z"/>
	<path class="st0" d="M346.612,11.815v5.995h4.849v2.121h-4.849v15.623c0,1.3,0.234,2.268,0.703,2.903
		c0.469,0.636,1.252,0.953,2.349,0.953c0.433,0,1.133-0.071,2.1-0.216l0.108,2.103c-0.679,0.243-1.602,0.365-2.771,0.365
		c-1.775,0-3.066-0.517-3.874-1.548c-0.809-1.031-1.213-2.551-1.213-4.557V19.931h-4.307V17.81h4.307v-5.995H346.612z"/>
	<path class="st0" d="M359.404,21.771c0.852-1.399,1.94-2.481,3.269-3.247c1.327-0.765,2.777-1.147,4.351-1.147
		c2.511,0,4.379,0.707,5.605,2.121c1.227,1.414,1.847,3.535,1.861,6.363v15.367h-2.575V25.84c-0.015-2.092-0.459-3.65-1.331-4.676
		c-0.874-1.024-2.27-1.536-4.188-1.536c-1.602,0-3.02,0.501-4.253,1.504c-1.234,1.003-2.147,2.357-2.738,4.059v16.038h-2.575V7.984
		h2.575V21.771z"/>
	<path class="st0" d="M384.056,41.229h-2.597V7.984h2.597V41.229z"/>
	<path class="st0" d="M390.939,11.046c0-0.487,0.159-0.9,0.477-1.237c0.317-0.336,0.75-0.505,1.299-0.505
		c0.548,0,0.984,0.169,1.309,0.505c0.324,0.337,0.486,0.75,0.486,1.237s-0.162,0.897-0.486,1.226
		c-0.325,0.33-0.762,0.495-1.309,0.495c-0.549,0-0.982-0.165-1.299-0.495C391.098,11.943,390.939,11.533,390.939,11.046z
		 M393.991,41.229h-2.597V17.81h2.597V41.229z"/>
	<path class="st0" d="M403.493,17.81l0.087,4.004c0.88-1.442,1.977-2.543,3.29-3.301c1.312-0.757,2.763-1.136,4.35-1.136
		c2.511,0,4.379,0.707,5.605,2.121c1.227,1.414,1.847,3.535,1.861,6.363v15.367h-2.575V25.84c-0.015-2.092-0.459-3.65-1.331-4.676
		c-0.874-1.024-2.27-1.536-4.189-1.536c-1.602,0-3.02,0.501-4.253,1.504c-1.234,1.003-2.147,2.357-2.738,4.059v16.038h-2.575V17.81
		H403.493z"/>
	<path class="st0" d="M434.444,41.662c-1.991,0-3.791-0.491-5.4-1.473c-1.608-0.98-2.86-2.348-3.755-4.102
		c-0.895-1.753-1.342-3.719-1.342-5.897V29.26c0-2.251,0.435-4.278,1.31-6.082c0.872-1.804,2.088-3.222,3.647-4.254
		c1.558-1.031,3.247-1.547,5.065-1.547c2.842,0,5.097,0.971,6.764,2.911c1.666,1.94,2.5,4.592,2.5,7.954v1.45h-16.71v0.498
		c0,2.655,0.761,4.866,2.284,6.634c1.521,1.768,3.438,2.651,5.746,2.651c1.385,0,2.608-0.252,3.669-0.758
		c1.061-0.505,2.023-1.312,2.89-2.424l1.623,1.233C440.829,40.285,438.066,41.662,434.444,41.662z M433.968,19.584
		c-1.948,0-3.59,0.715-4.925,2.144c-1.335,1.429-2.147,3.348-2.435,5.757h14.047v-0.281c-0.072-2.251-0.714-4.083-1.926-5.497
		C437.517,20.292,435.93,19.584,433.968,19.584z"/>
</g>
<g>
	<path class="st1" d="M13.877,33.696l6.43-31.386l4.751,0.219l3.414,30.954l1.958-12.827h22.132C49.852,8.827,39.27,0,26.621,0
		C11.919,0,0,11.92,0,26.62c0,2.452,0.338,4.824,0.959,7.079L13.877,33.696z"/>
	<path class="st1" d="M34.567,25.467l-4.102,26.856l-4.774-0.099l-3.743-33.938l-4.14,20.227H2.805
		c4.368,8.731,13.389,14.729,23.816,14.729c14.702,0,26.621-11.919,26.621-26.621c0-0.387-0.013-0.771-0.029-1.153H34.567z"/>
</g>
</svg>
