<svg fill="none" height="100" viewBox="0 0 516 100" width="516" xmlns="http://www.w3.org/2000/svg" xmlns:xlink="http://www.w3.org/1999/xlink"><linearGradient id="a" gradientUnits="userSpaceOnUse" x1="447.493" x2="447.493" y1="0" y2="98.1723"><stop offset="0" stop-color="#cc960f"/><stop offset=".35" stop-color="#e5cb87" stop-opacity=".05"/><stop offset=".5" stop-color="#fff" stop-opacity="0"/><stop offset=".65" stop-color="#e6cb87" stop-opacity=".05"/><stop offset="1" stop-color="#cc960f"/></linearGradient><path d="m51.7058 77.7065c.6235-9.3409-3.7002-17.3761-17.6578-23.2585l-10.5796-4.4794c-13.7316-5.8615-18.78843-15.1191-18.07582-25.7448 1.10319-16.57746 14.36192-24.584935 30.95082-23.452916 11.5183.784776 18.4938 3.729416 24.7977 8.146376l-.9456 14.24404-1.1512-.0764c-4.2962-13.66066-12.69-17.98734-22.5981-18.66794-10.6002-.72227-19.1584 6.19484-19.7614 15.29964-.5276 7.938 2.0556 14.3343 13.1834 19.1957l8.3253 3.6183c11.025 4.7434 26.3119 11.5355 25.0511 30.4465-1.158 17.3969-13.9165 28.2519-33.4929 26.9114-12.2104-.8333-22.28294-4.2224-29.7517-10.2437l1.06892-16.1122 1.15115.0764c6.31076 19.8972 16.86293 21.3278 26.31193 21.9737 14.7457 1.007 22.4611-7.1463 23.1738-17.8831zm82.1362 10.6466c0 6.2018 2.076 7.6046 8.311 7.6046h5.427v2.4585h-39.482v-2.4585h4.852c6.811 0 8.887-1.4028 8.887-7.4866v-81.33174h-15.589c-11.6619 0-17.2053 5.03504-19.0485 16.26494h-1.158v-20.59856h83.5885v20.59856h-1.158c-1.734-11.1188-7.277-16.26494-19.049-16.26494h-15.588v81.21374zm195.702 0c0 6.2018 2.076 7.6046 8.311 7.6046h5.427v2.4585h-39.482v-2.4585h4.852c6.811 0 8.887-1.4028 8.887-7.4866v-81.33174h-15.589c-11.662 0-17.205 5.03504-19.048 16.26494h-1.158v-20.59856h83.588v20.59856h-1.158c-1.734-11.1188-7.277-16.26494-19.049-16.26494h-15.588v81.21374zm-87.775-88.3531h1.5l14.616 89.0476c1.158 4.4447 3.46 6.9032 8.078 6.9032h2.769l-.35 2.4585h-32.904l.35-2.4585h2.542c4.618 0 7.667-1.4029 6.927-5.7365l-4.214-26.092h-33.534l-9.791 15.8413c-8.511 14.6677-6.606 15.9872 1.822 15.9872h1.96l-.349 2.4585h-27.71l.349-2.4585h1.151c6.469 0 8.737-2.0835 16.74-14.5079zm-29.3 56.1704h27.374l-5.68-35.1065z" fill="#1e2226"/><path clip-rule="evenodd" d="m478.934 0c6.167.00004264 11.477 1.30229 15.931 3.90642 4.502 2.55504 8.002 6.16638 10.498 10.83428 2.545 4.6186 4.38 9.7532 5.506 15.4036 1.175 5.6505 1.762 11.9652 1.762 18.9424 0 5.5519-.343 10.6616-1.029 15.3292-.636 4.6679-1.785 9.1401-3.449 13.4149-1.615 4.2254-3.696 7.8118-6.241 10.7598-2.496 2.948-5.725 5.2825-9.69 7.0023-3.915 1.7197-8.394 2.5794-13.435 2.5794s-9.519-.8597-13.435-2.5794c-3.915-1.7689-7.145-4.1275-9.69-7.0756-2.496-2.9972-4.576-6.6086-6.24-10.8342-1.615-4.2747-2.766-8.746-3.451-13.4138-.685-4.6677-1.027-9.7287-1.027-15.1826 0-5.5521.318-10.6625.954-15.3303.685-4.717 1.836-9.1892 3.451-13.4148 1.664-4.2745 3.768-7.861 6.313-10.75987 2.545-2.94804 5.775-5.28253 9.69-7.00225 3.965-1.719742 8.492-2.57948 13.582-2.57948zm-.441 3.46449c-1.468.00009-2.814.36798-4.037 1.10483-1.223.737-2.276 1.84284-3.157 3.3168-.832 1.42492-1.591 2.99728-2.276 4.71698-.636 1.6706-1.174 3.7349-1.615 6.1917-.391 2.4565-.709 4.7902-.954 7.0011s-.441 4.7905-.587 7.7384c-.098 2.948-.172 5.5527-.22 7.8129-.049 2.2111-.073 4.7914-.073 7.7395 0 3.4882.024 6.5589.073 9.212.048 2.6041.171 5.5776.367 8.9188.244 3.341.538 6.24.88 8.6967.343 2.4075.833 4.864 1.469 7.3698.685 2.4567 1.468 4.4716 2.349 6.0439.93 1.5723 2.08 2.8505 3.45 3.8332s2.912 1.4735 4.625 1.4735 3.23-.491 4.552-1.4735c1.37-.9826 2.496-2.2358 3.376-3.7588.93-1.5723 1.739-3.5872 2.424-6.0439.685-2.4568 1.199-4.9142 1.542-7.3709.391-2.4567.684-5.3316.88-8.6235.245-3.2917.391-6.2887.44-8.9909.049-2.7023.074-5.798.074-9.2864 0-3.8815-.049-7.346-.147-10.3923s-.293-6.4613-.587-10.2446c-.294-3.7834-.759-7.027-1.395-9.7294-.636-2.7514-1.443-5.331-2.422-7.7385-.93-2.45672-2.179-4.32446-3.745-5.60198-1.517-1.27724-3.279-1.91543-5.286-1.91543z" fill="url(#a)" fill-rule="evenodd"/><path d="m417.226.441934v85.937866c0 2.2107.343 3.7339 1.028 4.5693.734.8353 1.982 1.3272 3.744 1.4747l10.278.8838v3.1691h-49.921v-3.1691l10.057-.8838c1.811-.1475 3.084-.6394 3.818-1.4747.734-.8845 1.101-2.4076 1.101-4.5693v-71.4182c0-2.358-.318-3.9548-.954-4.7902-.636-.88441-1.811-1.44994-3.523-1.69565l-9.912-1.03157v-2.72716l33.697-4.71702z" fill="url(#a)"/><g fill="#4c565e"><path d="m514.898 44.3711-4.036 1.1367c-.142-.9378-.909-2.5292-3.353-2.5292-1.677 0-2.757 1.0514-2.757 2.1598 0 .9662.597 1.6766 1.989 1.9324l2.7.5115c3.837.7105 5.826 3.1829 5.826 6.0531 0 3.1545-2.643 6.3657-7.446 6.3657-5.57 0-7.957-3.6091-8.241-6.4509l4.121-.9947c.17 1.8472 1.421 3.4671 4.177 3.4671 1.762 0 2.842-.8526 2.842-2.103 0-1.023-.824-1.7619-2.16-2.0177l-2.756-.5115c-3.411-.6536-5.485-2.9271-5.485-5.911 0-3.8081 3.353-6.4794 7.218-6.4794 5.03 0 6.934 3.0123 7.361 5.3711z"/><path d="m484.918 59.5748-3.609-7.5024h-1.591v7.5024h-4.49v-20.1486h7.985c3.979 0 6.536 2.7282 6.536 6.3089 0 2.7281-1.506 4.8027-3.978 5.6837l4.092 8.156zm-5.2-11.3673h2.643c1.847 0 2.841-1.0231 2.841-2.444 0-1.5062-.994-2.444-2.841-2.444h-2.643z"/><path d="m459.898 59.5748-1.449-4.0922h-7.787l-1.449 4.0922h-4.717l7.587-20.1486h5.201l7.502 20.1486zm-5.285-15.147-2.473 6.9625h4.888z"/><path d="m434.663 59.5748h-12.788v-20.1486h12.76v4.2344h-8.27v3.8364h7.503v3.9502h-7.503v3.8649h8.298z"/><path d="m399.884 51.163-6.991-11.7368h5.257l4.121 7.474 4.178-7.474h5.001l-7.076 11.7368v8.4118h-4.49z"/></g></svg>